<svg xmlns="http://www.w3.org/2000/svg" viewBox="0 0 276.92 137.99"><defs><style>.cls-1{fill:#a91f23;}.cls-2{fill:#beb69d;}.cls-3{fill:#cd202a;}.cls-4{fill:#47140e;}.cls-5{fill:#7c1516;}.cls-6{fill:#749bc0;}.cls-7{fill:#b3d2e9;}.cls-8{fill:#302e3a;}.cls-9{fill:#535c6e;}.cls-10{fill:#282525;}.cls-11{fill:#805d3f;}.cls-12{fill:#a47f5a;}.cls-13{fill:#f7f8f6;}.cls-14{fill:#8ec0e8;}.cls-15{fill:#ef6570;}.cls-16{fill:#d3d3d3;}.cls-17{fill:#c2c1c1;}.cls-18{fill:#919191;}.cls-19{fill:#787876;}</style></defs><g id="Layer_2" data-name="Layer 2"><g id="Layer_1-2" data-name="Layer 1"><path class="cls-1" d="M75.94,100.1v16.61H1.41v-.06a2.18,2.18,0,0,1,0-.25v-.14s0,0,0,0a.66.66,0,0,1,0-.14l0-.26a2.56,2.56,0,0,1,.05-.27v0a1.06,1.06,0,0,1,0-.19,1.21,1.21,0,0,1,.05-.18,1.21,1.21,0,0,1,0-.18,2,2,0,0,1,.08-.22,4.79,4.79,0,0,1,.46-1,.86.86,0,0,1,.1-.16c0-.07.09-.14.14-.21a1.56,1.56,0,0,1,.16-.2l.16-.2.17-.18a4.59,4.59,0,0,1,.39-.37l.12-.1.13-.1.28-.19a.76.76,0,0,1,.19-.12,1.18,1.18,0,0,1,.19-.11h0l.1,0a.31.31,0,0,1,.1,0l.22-.1h0l.2-.07.21-.08.11,0,.11,0,.12,0,.11,0,.18,0h0v-1.53H0V100.1Z"/><path class="cls-1" d="M68.64,110.5H4.06A4.13,4.13,0,0,1,0,106.3V10.17A4.13,4.13,0,0,1,4.06,6H68.64a7.43,7.43,0,0,1,7.3,7.55V103A7.43,7.43,0,0,1,68.64,110.5Z"/><path class="cls-2" d="M75.94,111.23v11H6.25l-.16,0-.19,0-.12,0h0l-.18,0-.11,0-.12,0a3.72,3.72,0,0,1-.64-.22l-.22-.1-.1,0-.1-.05h0a1.18,1.18,0,0,1-.19-.11.76.76,0,0,1-.19-.12l-.28-.19-.2-.16h0l-.23-.2-.21-.21-.17-.18-.16-.2a1.56,1.56,0,0,1-.16-.2l-.14-.21a1.4,1.4,0,0,1-.1-.16,3.3,3.3,0,0,1-.18-.32c-.07-.14-.14-.28-.2-.42a2.09,2.09,0,0,1-.08-.23c0-.06-.05-.13-.08-.2v0a.84.84,0,0,1,0-.17,1.21,1.21,0,0,1-.05-.18,1.29,1.29,0,0,1,0-.19.09.09,0,0,1,0,0,2.38,2.38,0,0,1-.05-.26l0-.26a.66.66,0,0,1,0-.14s0,0,0,0V117a2.18,2.18,0,0,1,0-.25v-.13a2.18,2.18,0,0,1,0-.25v-.14s0,0,0,0a.66.66,0,0,1,0-.14l0-.26a2.56,2.56,0,0,1,.05-.27v0a1.06,1.06,0,0,1,0-.19,1.21,1.21,0,0,1,.05-.18,1.21,1.21,0,0,1,0-.18,2,2,0,0,1,.08-.22,4.79,4.79,0,0,1,.46-1,.86.86,0,0,1,.1-.16c0-.07.09-.14.14-.21a1.56,1.56,0,0,1,.16-.2l.16-.2.17-.18a4.59,4.59,0,0,1,.39-.37l.12-.1.13-.1.28-.19a.76.76,0,0,1,.19-.12,1.18,1.18,0,0,1,.19-.11h0l.1,0a.31.31,0,0,1,.1,0l.22-.1h0l.2-.07.21-.08.11,0,.11,0,.12,0,.11,0,.18,0h0l.12,0,.19,0,.16,0H75.94Z"/><path class="cls-3" d="M75.94,109.77v1.46H6.25l-.16,0-.19,0-.12,0v-1.47a6.4,6.4,0,0,1,.88-.06Z"/><path class="cls-3" d="M6.66,122.2H75.94v1.46H6.66a6.4,6.4,0,0,1-.88-.06v-1.47l.12,0,.19,0,.16,0h.41Z"/><path class="cls-1" d="M5.78,109.77v.06A6.82,6.82,0,0,0,0,116.65v-6.88Z"/><path class="cls-3" d="M1.41,116.78a2.18,2.18,0,0,0,0,.25v.14s0,0,0,0a.66.66,0,0,0,0,.14l0,.26a2,2,0,0,0,.05.26.09.09,0,0,0,0,0,1.06,1.06,0,0,0,0,.19,1.21,1.21,0,0,0,.05.18.84.84,0,0,0,0,.17v0c0,.07.05.14.08.2a2.09,2.09,0,0,0,.08.23c.06.14.13.28.2.42a3.3,3.3,0,0,0,.18.32.86.86,0,0,0,.1.16l.14.21a1.56,1.56,0,0,0,.16.2l.16.2.17.18.21.21.23.2h0l.2.16.28.19a.76.76,0,0,0,.19.12,1.18,1.18,0,0,0,.19.11h0l.1.05.1,0,.22.1a3.72,3.72,0,0,0,.64.22.27.27,0,0,0,.12,0l.11,0,.18,0h0v1.47A6.82,6.82,0,0,1,0,116.78v-.13a6.82,6.82,0,0,1,5.78-6.82v1.47h0l-.18,0-.11,0a.53.53,0,0,0-.12,0l-.11,0-.11,0-.21.08-.2.07h0l-.22.1a.31.31,0,0,0-.1,0l-.1,0h0a1.18,1.18,0,0,0-.19.11.76.76,0,0,0-.19.12l-.28.19-.13.1-.12.1a4.59,4.59,0,0,0-.39.37l-.17.18-.16.2a1.56,1.56,0,0,0-.16.2c-.05.07-.1.14-.14.21a.86.86,0,0,0-.1.16,4.79,4.79,0,0,0-.46,1,2,2,0,0,0-.08.22,1.21,1.21,0,0,0,0,.18,1.21,1.21,0,0,0-.05.18,1.06,1.06,0,0,0,0,.19v0a2.56,2.56,0,0,0-.05.27l0,.26a.66.66,0,0,0,0,.14s0,0,0,0v.14a2.18,2.18,0,0,0,0,.25Z"/><path class="cls-4" d="M5.78,111.3v10.83h0l-.18,0-.11,0-.12,0a3.72,3.72,0,0,1-.64-.22l-.22-.1-.1,0-.1-.05h0a1.18,1.18,0,0,1-.19-.11.76.76,0,0,1-.19-.12l-.28-.19-.2-.16h0l-.23-.2-.21-.21-.17-.18-.16-.2a1.56,1.56,0,0,1-.16-.2l-.14-.21a1.4,1.4,0,0,1-.1-.16,3.3,3.3,0,0,1-.18-.32c-.07-.14-.14-.28-.2-.42a2.09,2.09,0,0,1-.08-.23c0-.06-.05-.13-.08-.2v0a.84.84,0,0,1,0-.17,1.21,1.21,0,0,1-.05-.18,1.29,1.29,0,0,1,0-.19.09.09,0,0,1,0,0,2.38,2.38,0,0,1-.05-.26l0-.26a.66.66,0,0,1,0-.14s0,0,0,0V117a2.18,2.18,0,0,1,0-.25v-.13a2.18,2.18,0,0,1,0-.25v-.14s0,0,0,0a.66.66,0,0,1,0-.14l0-.26a2.56,2.56,0,0,1,.05-.27v0a1.06,1.06,0,0,1,0-.19,1.21,1.21,0,0,1,.05-.18,1.21,1.21,0,0,1,0-.18,2,2,0,0,1,.08-.22,4.79,4.79,0,0,1,.46-1,.86.86,0,0,1,.1-.16c0-.07.09-.14.14-.21a1.56,1.56,0,0,1,.16-.2l.16-.2.17-.18a4.59,4.59,0,0,1,.39-.37l.12-.1.13-.1.28-.19a.76.76,0,0,1,.19-.12,1.18,1.18,0,0,1,.19-.11h0l.1,0a.31.31,0,0,1,.1,0l.22-.1h0l.2-.07.21-.08.11,0,.11,0,.12,0,.11,0,.18,0h0Z"/><polygon class="cls-5" points="15.74 131.19 8.98 137.99 8.98 116.65 15.74 116.65 15.74 131.19"/><rect class="cls-6" x="96.91" y="5.97" width="81.44" height="117.63"/><rect class="cls-7" x="96.91" y="5.97" width="11.57" height="117.63"/><rect class="cls-8" x="98.63" y="8.41" width="1.5" height="2.65"/><rect class="cls-9" x="97.83" y="8.41" width="0.8" height="2.65"/><path class="cls-10" d="M96.5,9c-1.68,0-2.66.27-2.71.42a5.41,5.41,0,0,0,2.71.41,5.25,5.25,0,0,0,2.71-.42A5.45,5.45,0,0,0,96.5,9Zm0,1.13c-1.14,0-3.07-.15-3.07-.72s1.93-.71,3.07-.71,3.07.15,3.07.71S97.64,10.1,96.5,10.1Z"/><path class="cls-10" d="M96.5,9.68a5.35,5.35,0,0,0-2.71.42,5.41,5.41,0,0,0,2.71.41,5.45,5.45,0,0,0,2.71-.41A5.38,5.38,0,0,0,96.5,9.68Zm0,1.14c-1.14,0-3.07-.16-3.07-.72s1.93-.72,3.07-.72,3.07.15,3.07.72S97.64,10.82,96.5,10.82Z"/><rect class="cls-8" x="98.63" y="15.18" width="1.5" height="2.65"/><rect class="cls-9" x="97.83" y="15.18" width="0.8" height="2.65"/><path class="cls-10" d="M96.5,15.73a5.35,5.35,0,0,0-2.71.42,5.41,5.41,0,0,0,2.71.41,5.25,5.25,0,0,0,2.71-.42A5.59,5.59,0,0,0,96.5,15.73Zm0,1.13c-1.14,0-3.07-.15-3.07-.71s1.93-.72,3.07-.72,3.07.15,3.07.72S97.64,16.86,96.5,16.86Z"/><path class="cls-10" d="M96.5,16.45c-1.68,0-2.66.27-2.71.42a5.41,5.41,0,0,0,2.71.41,5.25,5.25,0,0,0,2.71-.42A5.45,5.45,0,0,0,96.5,16.45Zm0,1.13c-1.14,0-3.07-.15-3.07-.72s1.93-.71,3.07-.71,3.07.15,3.07.71S97.64,17.58,96.5,17.58Z"/><rect class="cls-8" x="98.63" y="21.94" width="1.5" height="2.65"/><rect class="cls-9" x="97.83" y="21.94" width="0.8" height="2.65"/><path class="cls-10" d="M96.5,22.5c-1.68,0-2.66.27-2.71.42a5.41,5.41,0,0,0,2.71.41,5.25,5.25,0,0,0,2.71-.42A5.45,5.45,0,0,0,96.5,22.5Zm0,1.13c-1.14,0-3.07-.15-3.07-.72s1.93-.71,3.07-.71,3.07.15,3.07.71S97.64,23.63,96.5,23.63Z"/><path class="cls-10" d="M96.5,23.21a5.35,5.35,0,0,0-2.71.42A5.41,5.41,0,0,0,96.5,24a5.45,5.45,0,0,0,2.71-.41A5.38,5.38,0,0,0,96.5,23.21Zm0,1.14c-1.14,0-3.07-.16-3.07-.72s1.93-.72,3.07-.72,3.07.15,3.07.72S97.64,24.35,96.5,24.35Z"/><rect class="cls-8" x="98.63" y="28.71" width="1.5" height="2.65"/><rect class="cls-9" x="97.83" y="28.71" width="0.8" height="2.65"/><path class="cls-10" d="M96.5,29.26c-1.68,0-2.66.27-2.71.42a5.41,5.41,0,0,0,2.71.41,5.25,5.25,0,0,0,2.71-.42A5.45,5.45,0,0,0,96.5,29.26Zm0,1.13c-1.14,0-3.07-.15-3.07-.71S95.36,29,96.5,29s3.07.15,3.07.72S97.64,30.39,96.5,30.39Z"/><path class="cls-10" d="M96.5,30c-1.68,0-2.66.27-2.71.42a5.41,5.41,0,0,0,2.71.41,5.25,5.25,0,0,0,2.71-.42A5.45,5.45,0,0,0,96.5,30Zm0,1.13c-1.14,0-3.07-.15-3.07-.72s1.93-.71,3.07-.71,3.07.15,3.07.71S97.64,31.11,96.5,31.11Z"/><rect class="cls-8" x="98.63" y="35.47" width="1.5" height="2.65"/><rect class="cls-9" x="97.83" y="35.47" width="0.8" height="2.65"/><path class="cls-10" d="M96.5,36c-1.68,0-2.66.27-2.71.42a5.55,5.55,0,0,0,2.71.41,5.38,5.38,0,0,0,2.71-.42A5.45,5.45,0,0,0,96.5,36Zm0,1.13c-1.14,0-3.07-.15-3.07-.72s1.93-.71,3.07-.71,3.07.15,3.07.71S97.64,37.16,96.5,37.16Z"/><path class="cls-10" d="M96.5,36.74a5.35,5.35,0,0,0-2.71.42,5.41,5.41,0,0,0,2.71.41,5.45,5.45,0,0,0,2.71-.41A5.38,5.38,0,0,0,96.5,36.74Zm0,1.14c-1.14,0-3.07-.16-3.07-.72s1.93-.72,3.07-.72,3.07.15,3.07.72S97.64,37.88,96.5,37.88Z"/><rect class="cls-8" x="98.63" y="42.24" width="1.5" height="2.65"/><rect class="cls-9" x="97.83" y="42.24" width="0.8" height="2.65"/><path class="cls-10" d="M96.5,42.79c-1.68,0-2.66.27-2.71.42a5.41,5.41,0,0,0,2.71.41,5.25,5.25,0,0,0,2.71-.42A5.45,5.45,0,0,0,96.5,42.79Zm0,1.13c-1.14,0-3.07-.15-3.07-.71s1.93-.72,3.07-.72,3.07.15,3.07.72S97.64,43.92,96.5,43.92Z"/><path class="cls-10" d="M96.5,43.51c-1.68,0-2.66.27-2.71.42a5.41,5.41,0,0,0,2.71.41,5.25,5.25,0,0,0,2.71-.42A5.45,5.45,0,0,0,96.5,43.51Zm0,1.13c-1.14,0-3.07-.15-3.07-.72s1.93-.71,3.07-.71,3.07.15,3.07.71S97.64,44.64,96.5,44.64Z"/><rect class="cls-8" x="98.63" y="49" width="1.5" height="2.65"/><rect class="cls-9" x="97.83" y="49" width="0.8" height="2.65"/><path class="cls-10" d="M96.5,49.56c-1.68,0-2.66.27-2.71.42a5.55,5.55,0,0,0,2.71.41A5.38,5.38,0,0,0,99.21,50,5.45,5.45,0,0,0,96.5,49.56Zm0,1.13c-1.14,0-3.07-.15-3.07-.72s1.93-.71,3.07-.71,3.07.15,3.07.71S97.64,50.69,96.5,50.69Z"/><path class="cls-10" d="M96.5,50.27a5.35,5.35,0,0,0-2.71.42,5.41,5.41,0,0,0,2.71.41,5.45,5.45,0,0,0,2.71-.41A5.38,5.38,0,0,0,96.5,50.27Zm0,1.13c-1.14,0-3.07-.15-3.07-.71S95.36,50,96.5,50s3.07.15,3.07.72S97.64,51.4,96.5,51.4Z"/><rect class="cls-8" x="98.63" y="55.77" width="1.5" height="2.65"/><rect class="cls-9" x="97.83" y="55.77" width="0.8" height="2.65"/><path class="cls-10" d="M96.5,56.32c-1.68,0-2.66.27-2.71.42a5.41,5.41,0,0,0,2.71.41,5.25,5.25,0,0,0,2.71-.42A5.45,5.45,0,0,0,96.5,56.32Zm0,1.13c-1.14,0-3.07-.15-3.07-.71S95.36,56,96.5,56s3.07.15,3.07.72S97.64,57.45,96.5,57.45Z"/><path class="cls-10" d="M96.5,57c-1.68,0-2.66.27-2.71.42a5.41,5.41,0,0,0,2.71.41,5.25,5.25,0,0,0,2.71-.42A5.45,5.45,0,0,0,96.5,57Zm0,1.13c-1.14,0-3.07-.15-3.07-.72s1.93-.71,3.07-.71,3.07.15,3.07.71S97.64,58.17,96.5,58.17Z"/><rect class="cls-8" x="98.63" y="62.53" width="1.5" height="2.65"/><rect class="cls-9" x="97.83" y="62.53" width="0.8" height="2.65"/><path class="cls-10" d="M96.5,63.09c-1.68,0-2.66.27-2.71.42a5.55,5.55,0,0,0,2.71.41,5.38,5.38,0,0,0,2.71-.42A5.45,5.45,0,0,0,96.5,63.09Zm0,1.13c-1.14,0-3.07-.15-3.07-.72s1.93-.71,3.07-.71,3.07.15,3.07.71S97.64,64.22,96.5,64.22Z"/><path class="cls-10" d="M96.5,63.8a5.35,5.35,0,0,0-2.71.42,5.41,5.41,0,0,0,2.71.41,5.45,5.45,0,0,0,2.71-.41A5.38,5.38,0,0,0,96.5,63.8Zm0,1.13c-1.14,0-3.07-.15-3.07-.71s1.93-.72,3.07-.72,3.07.15,3.07.72S97.64,64.93,96.5,64.93Z"/><rect class="cls-8" x="98.63" y="69.3" width="1.5" height="2.65"/><rect class="cls-9" x="97.83" y="69.3" width="0.8" height="2.65"/><path class="cls-10" d="M96.5,69.85c-1.68,0-2.66.27-2.71.42a5.41,5.41,0,0,0,2.71.41,5.25,5.25,0,0,0,2.71-.42A5.45,5.45,0,0,0,96.5,69.85Zm0,1.13c-1.14,0-3.07-.15-3.07-.71s1.93-.72,3.07-.72,3.07.15,3.07.72S97.64,71,96.5,71Z"/><path class="cls-10" d="M96.5,70.57c-1.68,0-2.66.27-2.71.42a5.41,5.41,0,0,0,2.71.41A5.25,5.25,0,0,0,99.21,71,5.45,5.45,0,0,0,96.5,70.57Zm0,1.13c-1.14,0-3.07-.15-3.07-.72s1.93-.71,3.07-.71,3.07.15,3.07.71S97.64,71.7,96.5,71.7Z"/><rect class="cls-8" x="98.63" y="76.06" width="1.5" height="2.65"/><rect class="cls-9" x="97.83" y="76.06" width="0.8" height="2.65"/><path class="cls-10" d="M96.5,76.62c-1.68,0-2.66.27-2.71.42a5.55,5.55,0,0,0,2.71.41A5.38,5.38,0,0,0,99.21,77,5.45,5.45,0,0,0,96.5,76.62Zm0,1.13c-1.14,0-3.07-.15-3.07-.72s1.93-.71,3.07-.71,3.07.15,3.07.71S97.64,77.75,96.5,77.75Z"/><path class="cls-10" d="M96.5,77.33a5.35,5.35,0,0,0-2.71.42,5.41,5.41,0,0,0,2.71.41,5.25,5.25,0,0,0,2.71-.42A5.59,5.59,0,0,0,96.5,77.33Zm0,1.13c-1.14,0-3.07-.15-3.07-.71S95.36,77,96.5,77s3.07.15,3.07.72S97.64,78.46,96.5,78.46Z"/><rect class="cls-8" x="98.63" y="82.83" width="1.5" height="2.65"/><rect class="cls-9" x="97.83" y="82.83" width="0.8" height="2.65"/><path class="cls-10" d="M96.5,83.38c-1.68,0-2.66.27-2.71.42a5.41,5.41,0,0,0,2.71.41,5.25,5.25,0,0,0,2.71-.42A5.45,5.45,0,0,0,96.5,83.38Zm0,1.13c-1.14,0-3.07-.15-3.07-.71s1.93-.72,3.07-.72,3.07.15,3.07.72S97.64,84.51,96.5,84.51Z"/><path class="cls-10" d="M96.5,84.1c-1.68,0-2.66.27-2.71.42a5.41,5.41,0,0,0,2.71.41,5.25,5.25,0,0,0,2.71-.42A5.45,5.45,0,0,0,96.5,84.1Zm0,1.13c-1.14,0-3.07-.15-3.07-.72s1.93-.71,3.07-.71,3.07.15,3.07.71S97.64,85.23,96.5,85.23Z"/><rect class="cls-8" x="98.63" y="89.59" width="1.5" height="2.65"/><rect class="cls-9" x="97.83" y="89.59" width="0.8" height="2.65"/><path class="cls-10" d="M96.5,90.15c-1.68,0-2.66.27-2.71.42A5.55,5.55,0,0,0,96.5,91a5.38,5.38,0,0,0,2.71-.42A5.45,5.45,0,0,0,96.5,90.15Zm0,1.13c-1.14,0-3.07-.15-3.07-.72s1.93-.71,3.07-.71,3.07.15,3.07.71S97.64,91.28,96.5,91.28Z"/><path class="cls-10" d="M96.5,90.86a5.35,5.35,0,0,0-2.71.42,5.41,5.41,0,0,0,2.71.41,5.25,5.25,0,0,0,2.71-.42A5.59,5.59,0,0,0,96.5,90.86Zm0,1.13c-1.14,0-3.07-.15-3.07-.71s1.93-.72,3.07-.72,3.07.15,3.07.72S97.64,92,96.5,92Z"/><rect class="cls-8" x="98.63" y="96.36" width="1.5" height="2.65"/><rect class="cls-9" x="97.83" y="96.36" width="0.8" height="2.65"/><path class="cls-10" d="M96.5,96.91c-1.68,0-2.66.27-2.71.42a5.41,5.41,0,0,0,2.71.41,5.25,5.25,0,0,0,2.71-.42A5.45,5.45,0,0,0,96.5,96.91Zm0,1.13c-1.14,0-3.07-.15-3.07-.71s1.93-.72,3.07-.72,3.07.15,3.07.72S97.64,98,96.5,98Z"/><path class="cls-10" d="M96.5,97.63c-1.68,0-2.66.27-2.71.42a5.41,5.41,0,0,0,2.71.41A5.25,5.25,0,0,0,99.21,98,5.45,5.45,0,0,0,96.5,97.63Zm0,1.13c-1.14,0-3.07-.15-3.07-.72s1.93-.71,3.07-.71,3.07.15,3.07.71S97.64,98.76,96.5,98.76Z"/><rect class="cls-8" x="98.63" y="103.12" width="1.5" height="2.65"/><rect class="cls-9" x="97.83" y="103.12" width="0.8" height="2.65"/><path class="cls-10" d="M96.5,103.68a5.41,5.41,0,0,0-2.71.41,5.35,5.35,0,0,0,2.71.42,5.38,5.38,0,0,0,2.71-.42A5.45,5.45,0,0,0,96.5,103.68Zm0,1.13c-1.14,0-3.07-.15-3.07-.72s1.93-.71,3.07-.71,3.07.15,3.07.71S97.64,104.81,96.5,104.81Z"/><path class="cls-10" d="M96.5,104.39a5.35,5.35,0,0,0-2.71.42,5.41,5.41,0,0,0,2.71.41,5.25,5.25,0,0,0,2.71-.42A5.59,5.59,0,0,0,96.5,104.39Zm0,1.13c-1.14,0-3.07-.15-3.07-.71s1.93-.72,3.07-.72,3.07.15,3.07.72S97.64,105.52,96.5,105.52Z"/><rect class="cls-8" x="98.63" y="109.89" width="1.5" height="2.65"/><rect class="cls-9" x="97.83" y="109.89" width="0.8" height="2.65"/><path class="cls-10" d="M96.5,110.44c-1.68,0-2.66.27-2.71.42a5.41,5.41,0,0,0,2.71.41,5.25,5.25,0,0,0,2.71-.42A5.45,5.45,0,0,0,96.5,110.44Zm0,1.13c-1.14,0-3.07-.15-3.07-.71s1.93-.72,3.07-.72,3.07.15,3.07.72S97.64,111.57,96.5,111.57Z"/><path class="cls-10" d="M96.5,111.16c-1.68,0-2.66.27-2.71.42a5.41,5.41,0,0,0,2.71.41,5.25,5.25,0,0,0,2.71-.42A5.45,5.45,0,0,0,96.5,111.16Zm0,1.13c-1.14,0-3.07-.15-3.07-.72s1.93-.71,3.07-.71,3.07.15,3.07.71S97.64,112.29,96.5,112.29Z"/><rect class="cls-8" x="98.63" y="116.65" width="1.5" height="2.65"/><rect class="cls-9" x="97.83" y="116.65" width="0.8" height="2.65"/><path class="cls-10" d="M96.5,117.21a5.41,5.41,0,0,0-2.71.41,5.35,5.35,0,0,0,2.71.42,5.38,5.38,0,0,0,2.71-.42A5.45,5.45,0,0,0,96.5,117.21Zm0,1.13c-1.14,0-3.07-.15-3.07-.72s1.93-.72,3.07-.72,3.07.16,3.07.72S97.64,118.34,96.5,118.34Z"/><path class="cls-10" d="M96.5,117.92a5.35,5.35,0,0,0-2.71.42,5.41,5.41,0,0,0,2.71.41,5.25,5.25,0,0,0,2.71-.42A5.59,5.59,0,0,0,96.5,117.92Zm0,1.13c-1.14,0-3.07-.15-3.07-.71s1.93-.72,3.07-.72,3.07.15,3.07.72S97.64,119.05,96.5,119.05Z"/><rect class="cls-11" x="192.63" y="7.11" width="84.3" height="118.33" rx="6.56"/><rect class="cls-12" x="192.63" y="5.5" width="84.3" height="118.33" rx="7.86"/><rect class="cls-13" x="198.36" y="16.93" width="72.83" height="101.43"/><rect class="cls-14" x="198.36" y="30.24" width="72.83" height="0.18"/><rect class="cls-14" x="198.36" y="34.59" width="72.83" height="0.18"/><rect class="cls-14" x="198.36" y="38.95" width="72.83" height="0.18"/><rect class="cls-14" x="198.36" y="43.3" width="72.83" height="0.18"/><rect class="cls-14" x="198.36" y="47.65" width="72.83" height="0.18"/><rect class="cls-14" x="198.36" y="52.01" width="72.83" height="0.18"/><rect class="cls-14" x="198.36" y="56.36" width="72.83" height="0.18"/><rect class="cls-14" x="198.36" y="60.72" width="72.83" height="0.18"/><rect class="cls-14" x="198.36" y="65.07" width="72.83" height="0.18"/><rect class="cls-14" x="198.36" y="69.42" width="72.83" height="0.18"/><rect class="cls-14" x="198.36" y="73.78" width="72.83" height="0.18"/><rect class="cls-14" x="198.36" y="78.13" width="72.83" height="0.18"/><rect class="cls-14" x="198.36" y="82.49" width="72.83" height="0.18"/><rect class="cls-14" x="198.36" y="86.84" width="72.83" height="0.18"/><rect class="cls-14" x="198.36" y="91.19" width="72.83" height="0.18"/><rect class="cls-14" x="198.36" y="95.55" width="72.83" height="0.18"/><rect class="cls-14" x="198.36" y="99.9" width="72.83" height="0.18"/><rect class="cls-14" x="198.36" y="104.26" width="72.83" height="0.18"/><rect class="cls-14" x="198.36" y="108.61" width="72.83" height="0.18"/><rect class="cls-14" x="198.36" y="112.97" width="72.83" height="0.18"/><rect class="cls-15" x="207.22" y="16.93" width="0.18" height="101.43"/><path class="cls-16" d="M237.79,1.27a4.25,4.25,0,0,0-3-1.27,4.29,4.29,0,0,0-4.26,4.34v5.93H239V4.34A4.37,4.37,0,0,0,237.79,1.27ZM233,3.57a1.84,1.84,0,0,1,3.63,0,1.84,1.84,0,0,1-3.63,0Z"/><path class="cls-17" d="M257.35,16.82H212.2a6.23,6.23,0,0,0-.81,3.08h46.77A6.23,6.23,0,0,0,257.35,16.82Z"/><path class="cls-18" d="M234.78,16.82h22.57a6,6,0,0,0-5.23-3.08H241.59V8.29l-3.77-1.75a7.28,7.28,0,0,0-6.09,0L228,8.29v5.45H217.43a6,6,0,0,0-4.27,1.8,6.39,6.39,0,0,0-1,1.28h22.58Z"/><path class="cls-19" d="M236.62,3.25a1.66,1.66,0,0,1,0,.32,1.84,1.84,0,0,0-3.63,0,1.66,1.66,0,0,1,0-.32,1.85,1.85,0,1,1,3.69,0Z"/></g></g></svg>