<svg xmlns="http://www.w3.org/2000/svg" viewBox="0 0 159.42 116.01"><defs><style>.cls-1{isolation:isolate;}.cls-2{fill:#3f232a;}.cls-3{fill:#270c14;}.cls-4{fill:#f4b88e;}.cls-5{fill:#f5dcd6;}.cls-20,.cls-5{mix-blend-mode:multiply;}.cls-6{fill:#f2a57f;}.cls-7{fill:#2f1807;}.cls-8{fill:#fff;}.cls-9{fill:#f37d7f;}.cls-10{fill:#f5a586;}.cls-11{fill:#6a54a1;}.cls-12{fill:#6db9ca;}.cls-13{fill:#eaf6f5;}.cls-14{fill:#001d51;}.cls-15{fill:#e08d61;}.cls-16{fill:#eba17d;}.cls-17{fill:none;stroke:#e89780;stroke-linecap:round;stroke-linejoin:round;}.cls-18{fill:#0d316d;}.cls-19,.cls-20{fill:#ec524f;}.cls-21{fill:#bfe5e5;}</style></defs><g class="cls-1"><g id="Layer_2" data-name="Layer 2"><g id="Layer_1-2" data-name="Layer 1"><rect class="cls-2" x="98.72" y="43.38" width="54.84" height="60.8"/><rect class="cls-3" x="112.12" y="43.38" width="28.02" height="60.8"/><rect class="cls-2" x="98.72" y="39.86" width="10.28" height="65.95"/><path class="cls-4" d="M132.42,79.21h-15s.38,11.51-1.46,14.85h18.14C132.23,90.72,132.42,79.21,132.42,79.21Z"/><path class="cls-5" d="M117.31,86.29c2.8,1.32,5.62,2.58,8.82,2.27a18.05,18.05,0,0,0,6.5-1.94c-.27-3.77-.21-7.41-.21-7.41h-15S117.5,82.64,117.31,86.29Z"/><path class="cls-4" d="M152.86,100.58l-20.93-8.17H118.05l-20.93,8.17s-7.33,2.63-6.47,15.38h68.68C160.33,102.43,152.86,100.58,152.86,100.58Z"/><path class="cls-4" d="M143.88,57.34c-.62,3.82.45,7.22,2.39,7.58s4-2.43,4.62-6.25-.46-7.22-2.4-7.58S144.49,53.52,143.88,57.34Z"/><path class="cls-6" d="M146.21,56.31s0-.22.1-.57a7.44,7.44,0,0,1,.47-1.37c.24-.51.63-1.1,1.13-1.13a1,1,0,0,1,.37,0l.19.1a1.31,1.31,0,0,1,.13.12,1.81,1.81,0,0,1,.47.83,4.83,4.83,0,0,1,.23,1.08,5.08,5.08,0,0,1,0,1.1c-.06.38-.08.78-.15,1.11s-.12.66-.18,1-.14.57-.19.82-.13.45-.18.63l-.14.55s.1-.17.26-.49.18-.35.28-.59l.32-.79c.1-.3.2-.64.3-1a9.92,9.92,0,0,0,.23-1.11,4.81,4.81,0,0,0,0-1.31,5.75,5.75,0,0,0-.25-1.3,2.73,2.73,0,0,0-.67-1.12,1.55,1.55,0,0,0-.28-.2,2.39,2.39,0,0,0-.26-.1,1.3,1.3,0,0,0-.59,0,1.52,1.52,0,0,0-1,.67,3.82,3.82,0,0,0-.46,1,6.44,6.44,0,0,0-.26,1.54A3.82,3.82,0,0,0,146.21,56.31Z"/><path class="cls-6" d="M146.21,56.31s-.18-.41,1.09-.51c0,0,1.43.27.59,2.17a6.19,6.19,0,0,0-.42,1.28c-.13.64.1,1.5-.25,2.07-.44.73-1.56.31-1.63-.52a4.81,4.81,0,0,1,.91-2.19A1.71,1.71,0,0,0,146.21,56.31Z"/><path class="cls-6" d="M145.59,60.72a.65.65,0,0,0-.1.1,1.18,1.18,0,0,0-.18.36,1.07,1.07,0,0,0-.07.27.8.8,0,0,0,0,.31c0,.11,0,.23,0,.34s.07.21.1.32a1.13,1.13,0,0,0,.15.29,1.37,1.37,0,0,0,.19.22.75.75,0,0,0,.38.28,1.25,1.25,0,0,0,.44.11,2.86,2.86,0,0,0-.2-.47.62.62,0,0,0-.11-.17,2,2,0,0,0-.09-.22,1.86,1.86,0,0,0-.1-.2.54.54,0,0,1-.08-.21,2.14,2.14,0,0,1-.16-.42.8.8,0,0,1-.05-.21,1.6,1.6,0,0,1-.05-.21C145.62,61,145.59,60.72,145.59,60.72Z"/><path class="cls-4" d="M107,57.34c.62,3.82-.46,7.22-2.39,7.58s-4-2.43-4.62-6.25.45-7.22,2.39-7.58S106.38,53.52,107,57.34Z"/><path class="cls-6" d="M104.67,56.31s0-.22-.11-.57a6.63,6.63,0,0,0-.46-1.37c-.25-.51-.64-1.1-1.13-1.13a1,1,0,0,0-.37,0l-.19.1a1.3,1.3,0,0,0-.14.12,2,2,0,0,0-.47.83,4.81,4.81,0,0,0-.22,1.08,5.11,5.11,0,0,0,0,1.1c.06.38.08.78.15,1.11s.13.66.19,1l.19.82c0,.25.13.45.17.63.1.35.15.55.15.55s-.1-.17-.26-.49-.18-.35-.28-.59-.21-.5-.32-.79-.2-.64-.3-1-.16-.73-.24-1.11a5.24,5.24,0,0,1,0-1.31,5.73,5.73,0,0,1,.24-1.3,2.75,2.75,0,0,1,.68-1.12,1.89,1.89,0,0,1,.27-.2l.27-.1a1.27,1.27,0,0,1,.58,0,1.49,1.49,0,0,1,.95.67,3.24,3.24,0,0,1,.46,1,6,6,0,0,1,.26,1.54A3.29,3.29,0,0,1,104.67,56.31Z"/><path class="cls-6" d="M104.67,56.31s.18-.41-1.1-.51c0,0-1.42.27-.58,2.17a6.19,6.19,0,0,1,.42,1.28c.13.64-.1,1.5.24,2.07.44.73,1.57.31,1.63-.52a4.69,4.69,0,0,0-.9-2.19A1.71,1.71,0,0,1,104.67,56.31Z"/><path class="cls-6" d="M105.28,60.72a.25.25,0,0,1,.1.1,1.16,1.16,0,0,1,.19.36,1.56,1.56,0,0,1,.09.58c0,.11,0,.23,0,.34s-.07.21-.1.32a1.57,1.57,0,0,1-.15.29,2.15,2.15,0,0,1-.19.22.82.82,0,0,1-.39.28,1.18,1.18,0,0,1-.43.11,2.86,2.86,0,0,1,.2-.47,1,1,0,0,1,.1-.17l.09-.22a2,2,0,0,1,.11-.2,1.31,1.31,0,0,0,.08-.21,2.14,2.14,0,0,0,.16-.42c0-.07,0-.14,0-.21s0-.14,0-.21C105.26,61,105.28,60.72,105.28,60.72Z"/><path class="cls-4" d="M144.48,26.31s-6.59-7.22-19.56-7.62c-13,.68-19.53,8.15-19.53,8.15-3.53,11.36-1.27,24.69.23,36.22,1.1,8.51,6.83,14.47,14,18.62a13.42,13.42,0,0,0,5.94,1.84,13.48,13.48,0,0,0,5.91-2c7-4.76,12.38-10.63,13.72-19.28A129.35,129.35,0,0,0,146.4,39,45.79,45.79,0,0,0,144.48,26.31Z"/><path class="cls-2" d="M119.28,49.56a14,14,0,0,0-9.43.64c.94-5.11,9.8-3,9.8-3s.59.14.52,1.06C120.17,48.24,119.94,49.81,119.28,49.56Z"/><path class="cls-2" d="M130.08,49.56a16,16,0,0,1,10.07.64c-1-5.11-10.44-3-10.44-3s-.59.14-.52,1.06C129.19,48.24,129.42,49.81,130.08,49.56Z"/><path class="cls-7" d="M113.39,54.32c0,1.49.85,2.68,1.86,2.68s1.84-1.22,1.83-2.7-.84-2.68-1.86-2.67S113.39,52.84,113.39,54.32Z"/><path class="cls-8" d="M114.51,53.47a.8.8,0,0,1-1.6,0,.8.8,0,1,1,1.6,0Z"/><path class="cls-7" d="M136.6,54.32c0,1.49-.84,2.68-1.86,2.68s-1.83-1.22-1.82-2.7.84-2.68,1.86-2.67S136.61,52.84,136.6,54.32Z"/><path class="cls-8" d="M135.49,53.47a.8.8,0,0,0,1.6,0,.8.8,0,1,0-1.6,0Z"/><path class="cls-8" d="M120.38,71.06c0,1.43,2.05,2.59,4.55,2.59s4.54-1.16,4.55-2.59Z"/><path class="cls-9" d="M129.24,71.46a4.74,4.74,0,0,0,1.48-.55s-.74-.31-1.78-.63c-2.68-1.13-2.5.33-3.93.33-.71,0-1.42-.76-2.09-.66a12.28,12.28,0,0,0-1.83.33,8.9,8.9,0,0,0-1.79.63,5.78,5.78,0,0,0,1.62.63,18.33,18.33,0,0,1,2.91.14,4.7,4.7,0,0,0,2,0,13.57,13.57,0,0,1,3.38-.27"/><path class="cls-9" d="M129.83,70.91A7,7,0,0,1,124.61,73a6.67,6.67,0,0,1-4.42-2.06h-.91a1.89,1.89,0,0,0,.09.21,8.54,8.54,0,0,0,.77,1.35q.26.33.51.69a7.89,7.89,0,0,0,.65.64l.35.33.41.27a3.88,3.88,0,0,0,.9.5,8.25,8.25,0,0,0,1,.33l.45.06.23,0,.11,0H125l1.06-.13a8.84,8.84,0,0,0,1-.33,3.76,3.76,0,0,0,.88-.49l.41-.27.35-.33a6.53,6.53,0,0,0,.64-.65l.52-.69a8.47,8.47,0,0,0,.77-1.34,1.89,1.89,0,0,0,.09-.21Z"/><path class="cls-8" d="M124.93,74.34c3.73-.25,4.42-2.42,4.42-2.42a5.36,5.36,0,0,1-4.42,1.8s-.24,0-.24.33C124.69,74.05,124.74,74.35,124.93,74.34Z"/><path class="cls-2" d="M153.56,46.16S154.69,17,132,12.9c0,0-16.08-2.57-22.11,7.4l6,15.28S115.82,41,141,46.41c0,0,5.16,1.32,5.48,11A18,18,0,0,1,153.56,46.16Z"/><path class="cls-10" d="M122.38,64.45l.1,0,.26-.07.83-.15c.31,0,.65-.09,1-.11s.65,0,1,0,.63,0,.94.06l.46,0,.47.06.44.08a2.07,2.07,0,0,1,.37,0,2.71,2.71,0,0,1,.27.05l.1,0a.42.42,0,0,1,0,.1,2.06,2.06,0,0,1-.09.26,2.29,2.29,0,0,1-.5.8,1.79,1.79,0,0,1-.46.4,2.52,2.52,0,0,1-.6.34,2.69,2.69,0,0,1-.7.2,2.65,2.65,0,0,1-.74.06,3,3,0,0,1-.74-.09,3.12,3.12,0,0,1-.67-.23,3.27,3.27,0,0,1-1-.72,3,3,0,0,1-.52-.76,1.87,1.87,0,0,1-.1-.26Z"/><path class="cls-11" d="M147,116c-.05-6,.33-12,5.18-15.64l-18.1-7.07-9.38,8.64-8.37-8.8L97.6,100.4c3.54,2,4.57,7.14,4.85,10.87a44.51,44.51,0,0,1,.12,4.69Z"/><path class="cls-2" d="M119.28,34.64s-14,3-14,22.78c0,0-.6-6.37-4.35-5.5,0,0-10.49-26.33,14.07-33.74Z"/><polygon class="cls-4" points="113.39 30.4 114.64 37.52 116.37 36.6 113.39 30.4"/><rect class="cls-12" x="32.27" y="85.05" width="22.43" height="8.26"/><path class="cls-4" d="M52.49,75.36H34.27s.46,11.51-1.77,14.85h22C52.26,86.87,52.49,75.36,52.49,75.36Z"/><path class="cls-5" d="M34,84.05a19.38,19.38,0,0,0,9.6,2.55,22.78,22.78,0,0,0,9.3-2.08,74.86,74.86,0,0,1-.45-9.16H34.27A73.26,73.26,0,0,1,34,84.05Z"/><path class="cls-4" d="M78.7,98.18,52.25,88.71H34.71L8.27,98.18S-1,101.23.09,116H86.88C88.14,100.32,78.7,98.18,78.7,98.18Z"/><path class="cls-13" d="M78.7,98.18,57.09,90.44,43.5,99.91l-13.28-9.6L8.27,98.18S-1,101.23.09,116H86.88C88.14,100.32,78.7,98.18,78.7,98.18Z"/><path class="cls-14" d="M30.22,90.31,8.27,98.18S-1,101.23.09,116h35Z"/><path class="cls-14" d="M78.7,98.18,57.09,90.44,52.62,116H86.88C88.14,100.32,78.7,98.18,78.7,98.18Z"/><path class="cls-4" d="M63.45,52.75c-.63,3.88.46,7.34,2.43,7.71S70,58,70.58,54.1s-.46-7.33-2.43-7.71S64.08,48.87,63.45,52.75Z"/><path class="cls-6" d="M65.82,51.7s0-.22.11-.57a6.93,6.93,0,0,1,.47-1.4c.25-.52.65-1.11,1.15-1.15a1.31,1.31,0,0,1,.38.06l.19.1s.09,0,.14.11a2,2,0,0,1,.47.85A4.88,4.88,0,0,1,69,50.8a5.29,5.29,0,0,1,0,1.12c-.06.39-.08.79-.15,1.12s-.13.68-.19,1-.14.58-.2.83-.13.47-.17.64c-.1.36-.15.57-.15.57s.1-.18.26-.5.19-.36.29-.6.21-.51.32-.8.2-.65.31-1,.16-.73.24-1.13a5.72,5.72,0,0,0-.21-2.64,2.76,2.76,0,0,0-.68-1.14,1.42,1.42,0,0,0-.28-.2,1.69,1.69,0,0,0-.27-.11,1.52,1.52,0,0,0-.6,0,1.59,1.59,0,0,0-1,.68,3.5,3.5,0,0,0-.47,1,6.16,6.16,0,0,0-.26,1.56A3.38,3.38,0,0,0,65.82,51.7Z"/><path class="cls-6" d="M65.82,51.7s-.18-.41,1.12-.51c0,0,1.44.27.59,2.2a6.61,6.61,0,0,0-.43,1.3c-.13.65.1,1.53-.25,2.11a.92.92,0,0,1-1.65-.53A4.76,4.76,0,0,1,66.12,54,1.74,1.74,0,0,0,65.82,51.7Z"/><path class="cls-6" d="M65.2,56.18a.92.92,0,0,0-.11.11,1.29,1.29,0,0,0-.19.36,1.06,1.06,0,0,0-.06.28,1.12,1.12,0,0,0,0,.32c0,.11,0,.23,0,.34a3.19,3.19,0,0,0,.11.33,1.13,1.13,0,0,0,.15.29,2.11,2.11,0,0,0,.19.23.82.82,0,0,0,.39.28,1.28,1.28,0,0,0,.45.11,3,3,0,0,0-.21-.47,1.14,1.14,0,0,0-.1-.19,2,2,0,0,0-.1-.21,1.24,1.24,0,0,0-.1-.2,1,1,0,0,1-.09-.22,2.35,2.35,0,0,1-.15-.42c0-.08,0-.15-.06-.22s0-.14,0-.21A3.27,3.27,0,0,1,65.2,56.18Z"/><path class="cls-4" d="M23.83,52.75c.63,3.88-.46,7.34-2.43,7.71S17.33,58,16.71,54.1s.46-7.33,2.43-7.71S23.21,48.87,23.83,52.75Z"/><path class="cls-6" d="M21.47,51.7s0-.22-.11-.57a7.62,7.62,0,0,0-.47-1.4c-.25-.52-.65-1.11-1.15-1.15a1.31,1.31,0,0,0-.38.06l-.19.1s-.09,0-.14.11a2,2,0,0,0-.47.85,4.89,4.89,0,0,0-.24,1.1,6,6,0,0,0,0,1.12c.06.39.08.79.15,1.12s.13.68.19,1,.14.58.19.83.13.47.18.64c.1.36.15.57.15.57s-.1-.18-.26-.5-.19-.36-.29-.6-.21-.51-.32-.8-.21-.65-.31-1-.16-.73-.24-1.13a4.93,4.93,0,0,1-.05-1.33A5.94,5.94,0,0,1,18,49.37a2.68,2.68,0,0,1,.69-1.14,1.18,1.18,0,0,1,.28-.2,1.69,1.69,0,0,1,.27-.11,1.46,1.46,0,0,1,.59,0,1.59,1.59,0,0,1,1,.68,3.8,3.8,0,0,1,.47,1,6.16,6.16,0,0,1,.26,1.56A3.38,3.38,0,0,1,21.47,51.7Z"/><path class="cls-6" d="M21.47,51.7s.18-.41-1.12-.51c0,0-1.45.27-.6,2.2a6,6,0,0,1,.44,1.3c.13.65-.1,1.53.24,2.11.45.74,1.59.32,1.66-.53A4.86,4.86,0,0,0,21.17,54,1.74,1.74,0,0,1,21.47,51.7Z"/><path class="cls-6" d="M22.09,56.18a.6.6,0,0,1,.1.11,1.29,1.29,0,0,1,.19.36,1,1,0,0,1,.07.28.85.85,0,0,1,0,.32c0,.11,0,.23,0,.34a3.18,3.18,0,0,1-.1.33,1.57,1.57,0,0,1-.15.29c-.06.09-.13.15-.19.23a.84.84,0,0,1-.4.28,1.21,1.21,0,0,1-.44.11,2.51,2.51,0,0,1,.2-.47,1.18,1.18,0,0,1,.11-.19l.09-.21c0-.07.07-.14.11-.2a1,1,0,0,0,.08-.22,2.41,2.41,0,0,0,.16-.42c0-.08,0-.15.06-.22a1.55,1.55,0,0,0,0-.21A4.28,4.28,0,0,0,22.09,56.18Z"/><path class="cls-4" d="M43.88,10.85h-.62C27.6,11,18.81,15.44,21.21,44l2.7,22.74a9.45,9.45,0,0,0,5,6.62l8.51,6.31s4,1.79,6.14,1.62c2.09.17,6.13-1.62,6.13-1.62l8.5-6.31a9.46,9.46,0,0,0,5-6.63l2.84-22.2C68.48,16,59.54,11,43.88,10.85Z"/><path class="cls-15" d="M62.29,52.75c-.56,2.42-.94,6.29-2.51,8.37a6,6,0,0,1-4.57,2.34,16.26,16.26,0,0,1-3.75-.26,20,20,0,0,0-2.85-.67,5.26,5.26,0,0,0-2.81.87,4.13,4.13,0,0,1-3.52.18,16.06,16.06,0,0,0-5.46-1.19c-2.16.08-4.63.65-6.75,0s-3.44-2.66-4.32-4.73c-.48-1.12-.82-3.75-1.16-4.91-.42-1.44-1.08-.45-2.39-.47l1.71,14.44a9.45,9.45,0,0,0,5,6.62l8.51,6.31s4,1.79,6.14,1.62c2.09.17,6.13-1.62,6.13-1.62l8.5-6.31a9.46,9.46,0,0,0,5-6.63L65.12,52C63.64,52,62.68,51.06,62.29,52.75Z"/><path class="cls-7" d="M32,45.85c0,1.48.84,2.68,1.86,2.67s1.83-1.21,1.82-2.69-.84-2.69-1.85-2.68S32,44.37,32,45.85Z"/><path class="cls-8" d="M33.15,45a.8.8,0,0,1-.8.8.8.8,0,0,1,0-1.6A.8.8,0,0,1,33.15,45Z"/><path class="cls-7" d="M55.25,45.85c0,1.48-.84,2.68-1.86,2.67s-1.84-1.21-1.83-2.69.84-2.69,1.86-2.68S55.26,44.37,55.25,45.85Z"/><path class="cls-8" d="M54.14,45a.8.8,0,1,0,1.59,0,.8.8,0,1,0-1.59,0Z"/><path class="cls-16" d="M46.35,60.29a5.37,5.37,0,0,1-1.48,1,6,6,0,0,1-1.77.48,7.47,7.47,0,0,1-1,0,6.22,6.22,0,0,1-.95-.14,5.32,5.32,0,0,1-.94-.28,7.16,7.16,0,0,1-.88-.43L39,60.76l-.08-.62c0-.28-.06-.52-.07-.77s0-.5,0-.75a8.11,8.11,0,0,1,.2-1.48,6.48,6.48,0,0,1,.5-1.44,5,5,0,0,1,.87-1.34,7.24,7.24,0,0,1,.42,1.52A10.13,10.13,0,0,1,41,57.31c0,.47,0,.94,0,1.4l0,.69c0,.23,0,.47-.07.68l-.45-.81c.2.12.38.29.59.4a4.78,4.78,0,0,0,.64.32,6.85,6.85,0,0,0,.68.26c.24,0,.48.13.73.16a4.9,4.9,0,0,0,.77.08,7.09,7.09,0,0,0,.8,0A9.79,9.79,0,0,0,46.35,60.29Z"/><path class="cls-15" d="M37.74,40.38a1.28,1.28,0,0,1-1.46,1,14.1,14.1,0,0,0-7.45.63,1.34,1.34,0,0,1-1.59-.73h0a1.19,1.19,0,0,1,.65-1.67,16.68,16.68,0,0,1,8.77-.77,1.3,1.3,0,0,1,1.08,1.56Z"/><path class="cls-15" d="M48.84,40.38a1.28,1.28,0,0,0,1.46,1,14.1,14.1,0,0,1,7.45.63,1.34,1.34,0,0,0,1.59-.73h0a1.19,1.19,0,0,0-.65-1.67,16.68,16.68,0,0,0-8.77-.77,1.3,1.3,0,0,0-1.08,1.56Z"/><path class="cls-17" d="M44.42,70.31a4.92,4.92,0,0,1-2.21,0"/><path class="cls-8" d="M38.35,65.75l1.28,2.52s5.72,3.21,9.75-2.39A99.85,99.85,0,0,1,38.35,65.75Z"/><path class="cls-15" d="M66.42,12c1.84-8-7.88-9.2-7.88-9.2A75.54,75.54,0,0,1,41,.5C21.19-2.29,18.92,7.56,18.92,7.56c-2.42,7.05-2.14,11.38-2.14,11.38l2.36,27.45s2-.33,2.68,2.72l.49,3.61,2.28,0C24,41.43,24,32.18,24,32.18c.18-3.33,0-8.15,5.07-8.73a76,76,0,0,0,7.65,1,64.05,64.05,0,0,0,14.65-.37c3.14-.38,8.56-1.61,10.78,1.4,1.55,2.12,1.51,5.56,1.58,8.06,0,1.38-.09,2.71-.17,4.07,0,0-1.28,15.1-1.28,15.1H65c.44-6.91,4-5.92,4-5.92,2.06-15.52,4.24-25.63,4.24-25.63s.76-8.56-6.87-9.18"/><path class="cls-15" d="M67.21,8.26s2.24,2-.79,4.5l2.57,3s2.73-3.94,4.71-2.32c0,0-.64-2.3-3.57-1.62C70.13,11.86,71.31,8.52,67.21,8.26Z"/><polygon class="cls-18" points="30.22 90.31 35.07 116.01 29.8 116.01 18.51 94.51 30.22 90.31"/><polygon class="cls-18" points="57.09 90.44 52.62 116.01 57.54 116.01 67.33 94.11 57.09 90.44"/><polygon class="cls-12" points="43.49 99.87 41.71 90.76 32.27 85.05 30.9 90.8 43.49 99.87"/><polygon class="cls-12" points="43.49 99.87 45.27 90.76 54.71 85.05 56.08 90.8 43.49 99.87"/><path class="cls-19" d="M48,92H39a2.75,2.75,0,0,0-1.15,3.34l2.87,4.54h5.58l2.86-4.54A2.75,2.75,0,0,0,48,92Z"/><path class="cls-20" d="M48.62,92.52a5,5,0,0,1-.19,2.68,5.21,5.21,0,0,1-4,3.69,3.47,3.47,0,0,1-4.12-2.29c-.47-1.6-.74-3.41.29-4.61H39a2.75,2.75,0,0,0-1.15,3.34l2.87,4.54h5.58l2.86-4.54A2.54,2.54,0,0,0,48.62,92.52Z"/><polygon class="cls-19" points="40.7 99.87 37.62 116.01 49.38 116.01 46.28 99.87 40.7 99.87"/><polygon class="cls-21" points="41.71 90.76 37.25 98.93 26.34 91.52 32.27 85.05 41.71 90.76"/><polygon class="cls-21" points="45.27 90.76 49.73 98.93 60.64 91.52 54.71 85.05 45.27 90.76"/></g></g></g></svg>