<svg xmlns="http://www.w3.org/2000/svg" viewBox="0 0 230.3 198.43"><defs><style>.cls-1{fill:#c49a6c;opacity:0.95;}.cls-2{fill:#58595b;}.cls-3{fill:#00a651;}.cls-4{fill:#c2b59b;}.cls-5{fill:#00aeef;}.cls-6{fill:#3b4246;}.cls-7{fill:#f7941d;}</style></defs><g id="Layer_2" data-name="Layer 2"><g id="Layer_1-2" data-name="Layer 1"><path class="cls-1" d="M95.35,133.27c5.19,12.33,15.07,19,21.66,19s15.56-6.49,20.82-18.66A57.3,57.3,0,0,0,141,123.23a41.57,41.57,0,0,0,1.33-11.49c0-12.64-11.33-23.31-25.3-23.31S91.72,99.1,91.72,111.74a55.41,55.41,0,0,0,.59,8.58A50.22,50.22,0,0,0,95.35,133.27Z"/><path class="cls-2" d="M161.74,169.3c-5.06-5.4-19.27-4.05-26.3-7.76-3.12,5.84-3.17,15.45-8.35,15.45a4.32,4.32,0,0,1-.7-.06c-7.81-1.17-3.9-21.1-9.38-21.1s-1.56,19.93-9.38,21.1a4.2,4.2,0,0,1-.69.06c-5.19,0-5.23-9.61-8.35-15.45-7,3.71-21.24,2.36-26.28,7.76-2.74,2.93-4.16,21.07-4.16,29.13h97.73C165.88,190.37,164.47,172.23,161.74,169.3Z"/><path class="cls-3" d="M229.34,152.93c-8.06,0-11.64-4.38-12.8-6.27a1.13,1.13,0,0,0-1.76,0c-1.16,1.89-4.74,6.27-12.79,6.27-.54,0-1,.33-1,.72v6.81c0,2.81,0,8.66,7.72,12.35,4.34,2.08,6,3.12,6,3.86,0,.39.43.72,1,.72s1-.33,1-.72c0-.74,1.61-1.78,6-3.86,7.71-3.69,7.71-9.54,7.71-12.35v-6.81C230.3,153.26,229.87,152.93,229.34,152.93Zm-1,7.53c0,2.75,0,7.87-6.83,11.14a28.9,28.9,0,0,0-5.88,3.33,28.9,28.9,0,0,0-5.88-3.33c-6.83-3.27-6.83-8.39-6.83-11.14v-6.11a18.33,18.33,0,0,0,8.73-2.43,14.46,14.46,0,0,0,4-3.42,14.77,14.77,0,0,0,4,3.42,18.4,18.4,0,0,0,8.73,2.43Z"/><path class="cls-3" d="M215.66,152.08a19.86,19.86,0,0,1-9.81,4.17v4.21a11.74,11.74,0,0,0,.78,4.86,9.12,9.12,0,0,0,4.72,4.47c1.67.8,3.11,1.51,4.31,2.21,1.2-.7,2.65-1.41,4.31-2.21a9.08,9.08,0,0,0,4.72-4.47,11.74,11.74,0,0,0,.78-4.86v-4.21A20,20,0,0,1,215.66,152.08Z"/><path class="cls-4" d="M198.66,82.89l.54-1,1-1.83v0l6.45-6.55.94-1,1.32-.72.48-.26,1-1.6-.79-.81L208,70.18l-.27.51-.7,1.32-.93.95-.91.92-5.54,5.63h0l-2.81,1.53a11,11,0,0,0-2,1.52l-.79.8-.14.15,0,0-9.93,10.08h0a1.31,1.31,0,0,0,0,1.82l.54.55a1.26,1.26,0,0,0,1.79,0h0l6.54-6.64,3.42-3.47.93-.94A10.09,10.09,0,0,0,198.66,82.89Z"/><path class="cls-4" d="M209.72,91a3.2,3.2,0,0,0-2.62-.93l-7.37-7.48-.37.7a4.79,4.79,0,0,1-.3.51,10.2,10.2,0,0,1-1.25,1.61l-.73.74,7.15,7.26a3.48,3.48,0,0,0,.33,1.34,3,3,0,0,0,.61.87,3.3,3.3,0,0,0,.85.62,3.2,3.2,0,0,0,3.18-.19,2.64,2.64,0,0,0,.52-.43A3.31,3.31,0,0,0,209.72,91Zm-.85,3.76a2.3,2.3,0,0,1-.55.39,2,2,0,0,1-2.3-.39,2.07,2.07,0,0,1-.38-2.33,2.26,2.26,0,0,1,.11-.22l.61-.62a2,2,0,0,1,1.57-.25,1.93,1.93,0,0,1,.94.53,2,2,0,0,1,.52,1A2.06,2.06,0,0,1,208.87,94.8Z"/><path class="cls-4" d="M191.65,79l1.18,2.88.77.78.73-.74a10.4,10.4,0,0,1,1.58-1.26c.18-.12.35-.23.5-.31l.7-.38-1.2-1.22-2.77-1.15,2.87-5-4.83-3.68-2.87.42L189,70l2.33,2.39-.5,2-.93,1-.15.14-.93.95h0l-2,.51-3.05-3.07-.24,1.65-.18,1.27,3.63,4.9Z"/><path class="cls-5" d="M109.51,11.39h-.68c-.73.07-1.33,1.17-1.33,2.45v1c0,1.28.59,2.24,1.33,2.13h.68c6.54,0,11.86,5.76,11.86,12.83v.74c-.1.79.79,1.44,2,1.44h.91c1.18,0,2.2-.65,2.27-1.44v-.74C126.52,19.64,118.89,11.39,109.51,11.39Z"/><path class="cls-5" d="M111.79,22.67a4.48,4.48,0,0,0-4.29,4.65,4.3,4.3,0,1,0,8.58,0A4.48,4.48,0,0,0,111.79,22.67Z"/><path class="cls-5" d="M109.51,0h-.91c-.61,0-1.1,1.12-1.1,2.4v.95c0,1.27.51,2.27,1.14,2.22h.87c12.35,0,22.39,10.86,22.39,24.21,0,.22,0,.44,0,.66l0,.51c0,.56.9,1,2.08,1h.87C136,32,137,31.5,137,31v-.51c0-.22,0-.44,0-.66C137.05,13.36,124.7,0,109.51,0Z"/><path class="cls-6" d="M48.58,89.69H39.23a4.08,4.08,0,0,0-4.18,4h17.7A4.08,4.08,0,0,0,48.58,89.69Z"/><rect class="cls-6" x="41.18" y="85.85" width="5.44" height="3"/><path class="cls-6" d="M58.7,64.35H29.1a.78.78,0,0,0-.79.75v19a.78.78,0,0,0,.79.75H58.7a.77.77,0,0,0,.79-.75v-19A.77.77,0,0,0,58.7,64.35ZM56.46,81.26a.78.78,0,0,1-.8.75H32.15a.78.78,0,0,1-.81-.75V68a.78.78,0,0,1,.81-.75H55.66a.78.78,0,0,1,.8.75Z"/><path class="cls-7" d="M29.77,154.93H6.8A6.83,6.83,0,0,0,0,161.79V185a6.84,6.84,0,0,0,6.8,6.86h23a6.84,6.84,0,0,0,6.8-6.86V161.79A6.83,6.83,0,0,0,29.77,154.93Zm4.86,30a4.89,4.89,0,0,1-4.86,4.9H6.8A4.89,4.89,0,0,1,1.94,185V161.79a4.88,4.88,0,0,1,4.86-4.9h23a4.88,4.88,0,0,1,4.86,4.9Z"/><path class="cls-7" d="M29.48,163.34h-14a1,1,0,0,0,0,2h14a1,1,0,0,0,0-2Z"/><path class="cls-7" d="M29.48,172.24h-14a1,1,0,0,0,0,2h14a1,1,0,0,0,0-2Z"/><path class="cls-7" d="M29.48,181.14h-14a1,1,0,0,0,0,2h14a1,1,0,0,0,0-2Z"/><path class="cls-7" d="M12.36,164.56a1,1,0,0,0-1,1V166H8.06v-2.57a1,1,0,1,0-1.94,0V167a1,1,0,0,0,1,1h5.27a1,1,0,0,0,1-1v-1.44A1,1,0,0,0,12.36,164.56Z"/><path class="cls-7" d="M12.36,169.58H7.09a1,1,0,0,0-1,1v5.32a1,1,0,0,0,1,1h5.27a1,1,0,0,0,1-1v-5.32A1,1,0,0,0,12.36,169.58Zm-1,5.32H8.06v-3.36h3.33Z"/><path class="cls-7" d="M12.36,178.48H7.09a1,1,0,0,0-1,1v5.32a1,1,0,0,0,1,1h5.27a1,1,0,0,0,1-1v-5.32A1,1,0,0,0,12.36,178.48Zm-1,5.32H8.06v-3.36h3.33Z"/><path class="cls-7" d="M13.39,157.17a1,1,0,0,0-1.27.53l-1.84,4.5-.92-2.1a1,1,0,0,0-1.78.8l1.84,4.19a1,1,0,0,0,.89.58h0a1,1,0,0,0,.89-.6l2.7-6.62A1,1,0,0,0,13.39,157.17Z"/></g></g></svg>