<svg xmlns="http://www.w3.org/2000/svg" viewBox="0 0 3302.62 1888.23"><defs><style>.cls-1{fill:#e3eaff;}.cls-2{fill:#95a6db;}.cls-3{fill:#4364cc;}.cls-4{fill:#f37a50;}.cls-5{fill:#8a284c;}.cls-6{fill:#e62552;}.cls-7{fill:#3b1120;}.cls-8{fill:#de623c;}.cls-9{fill:#fff;}.cls-10{fill:#070635;}.cls-11{fill:#768fdb;}.cls-12{fill:#201d40;}.cls-13{fill:#2c2858;}.cls-14{fill:#494c7f;}.cls-15{fill:#c4204a;}.cls-16{fill:#ffd0b7;}.cls-17{fill:#4661b3;}.cls-18{fill:#0e6a41;}.cls-19{fill:#3f964f;}.cls-20{fill:#55ab65;}.cls-21{fill:#95adf5;}.cls-22{fill:#555994;}.cls-23{fill:#cfdbff;}.cls-24{fill:#7f99eb;}.cls-25{fill:#bdcdff;}.cls-26{fill:#cdd8fa;}</style></defs><g id="Layer_2" data-name="Layer 2"><g id="Слой_1" data-name="Слой 1"><path class="cls-1" d="M138.35,1872.63c-268.4-382.16-115.22-766.4,194-984.47,314.35-221.68-40.53-680.3,585.14-866.92C1241.2-75.31,1525.83,188,1843.09,199.42c284.28,10.26,578.36-221.94,867-114.38,193,61.92,386,235.69,371.59,443.45-7.44,107.36-73.28,234.46-5.11,316,287.72,344.23,258.06,645.31,145.3,1023.31Z"/><path class="cls-2" d="M3224,1886.89H109.22a11.1,11.1,0,0,1-11.11-11.11h0a11.11,11.11,0,0,1,11.11-11.11H3224a11.12,11.12,0,0,1,11.11,11.11h0A11.11,11.11,0,0,1,3224,1886.89Z"/><path d="M1289.77,837.3c-49.82-14.06-156.23,31-127.27,212.19s166.15,151.33,166.15,151.33,59.8-18.8,65.17-133.93S1373.56,860.94,1289.77,837.3Z"/><path class="cls-3" d="M1264.74,1079.55s-65.62,50.86-163.47,47.71c-19.73-37.83,20.49-56.66,20.49-56.66l78.27-35.46s28.17-9.26,51.41,9C1271.68,1060.11,1264.74,1079.55,1264.74,1079.55Z"/><path class="cls-4" d="M1195.67,979.18s-25.1,59.21-39.59,94.47c-5.75,14-27.54,54.43-54.81,53.61-24.2-26.07,8.47-99.33,82-159.85C1192,976.61,1195.67,979.18,1195.67,979.18Z"/><path class="cls-5" d="M1192.13,1004.71l-24.2-11.89a6.62,6.62,0,0,1-3-8.86l25.43-51.77c1.61-3.29,7.88-5.43,11.16-3.81l21.9,12.67a6.62,6.62,0,0,1,3,8.86l-21.69,52.63C1203.72,1005,1198.08,1007.73,1192.13,1004.71Z"/><path class="cls-6" d="M1197.07,1004.38l-24.2-11.89a6.62,6.62,0,0,1-3-8.86l25.43-51.78a6.61,6.61,0,0,1,8.86-3l24.2,11.88a6.63,6.63,0,0,1,3,8.87l-25.43,51.77A6.63,6.63,0,0,1,1197.07,1004.38Z"/><path class="cls-7" d="M1200.07,993.93l-20.52-10.08a5.45,5.45,0,0,1-2.49-7.3L1197.45,935a5.47,5.47,0,0,1,7.3-2.49l20.52,10.08a5.46,5.46,0,0,1,2.49,7.3l-20.39,41.53A5.47,5.47,0,0,1,1200.07,993.93Z"/><path class="cls-5" d="M1190.61,994.24a3.3,3.3,0,1,1-2.53-3.93A3.32,3.32,0,0,1,1190.61,994.24Z"/><path id="c" class="cls-4" d="M1169.75,969a4.87,4.87,0,0,1,1.5-.56l-.15-.24c-2.82-4.76-2.34-10.26,1.08-12.29a5.34,5.34,0,0,1,1.8-.65c-.69-3.45.24-6.67,2.69-8.12a5.56,5.56,0,0,1,3.21-.72c-.91-3.41.12-6.89,2.86-8.51,3.42-2,8.14-.37,10.55,3.7s1.59,9-1.83,11a6.16,6.16,0,0,1-2.78.84c2,4.41,1.3,9.08-1.79,10.91a5.34,5.34,0,0,1-1.8.65c.69,3.46-.25,6.68-2.69,8.12a5.47,5.47,0,0,1-3,.74c1,3,.09,6.12-2.31,7.54-2.89,1.71-6.88.31-8.91-3.13S1166.86,970.7,1169.75,969Z"/><path class="cls-4" d="M1246.5,1001.89l37.14-5.56-3,34.47s-18.81,33.89-36.65,28.06-9.14-20.81-9.14-20.81Z"/><path class="cls-4" d="M1313.35,946c-6,40.73-36.86,69.9-68.85,65.17s-53-41.6-47-82.33,36.86-69.9,68.85-65.16S1319.38,905.24,1313.35,946Z"/><path d="M1278.58,935a2.09,2.09,0,0,1-1.13-.82c-4.15-6-12.49-5.79-12.57-5.79a2.12,2.12,0,0,1-.14-4.23c.43,0,10.7-.27,16.18,7.6a2.12,2.12,0,0,1-2.34,3.24Z"/><path d="M1207.24,933.79a2.09,2.09,0,0,1-.59-.35,2.13,2.13,0,0,1-.25-3,14.85,14.85,0,0,1,14.38-4.89,2.12,2.12,0,0,1-1,4.11,10.59,10.59,0,0,0-10.14,3.52A2.1,2.1,0,0,1,1207.24,933.79Z"/><path class="cls-8" d="M1236.78,951c-2.67,3.28-5,6.61-7.6,8.61a2.13,2.13,0,0,0-.45,2.88c2.61,3.81,9.5,6.52,13.69,7.89a.57.57,0,0,0,.51-1c-4.4-3.22-6.38-5.7-7.25-7.08a2.57,2.57,0,0,1-.19-2.29c.69-1.73,2.06-5.24,2.94-8.13A1,1,0,0,0,1236.78,951Z"/><path class="cls-9" d="M1263.58,981.8a1.68,1.68,0,0,0-1.7-2.59,120.65,120.65,0,0,1-31.73,1.9,1.68,1.68,0,0,0-1.39,2.77c2.94,3.51,8.9,8.74,18,8.2S1261.08,985.63,1263.58,981.8Z"/><path d="M1326.37,942.23c-37.83-1.71-87.59-36.63-93.61-55.8,5.17-24.12,24.19-37.75,46.9-28.79S1339.6,911.29,1326.37,942.23Z"/><path d="M1241.41,896.13s-22.52,22.88-45.32,28.11c8-26.69,13.68-46.93,27.36-53.48s28.79-7.7,28.79-7.7Z"/><path class="cls-4" d="M1304.51,939.64c-7.09,6.59-8.47,16.64-3.07,22.44s15.51,5.16,22.6-1.43,8.47-16.64,3.07-22.44S1311.6,933.05,1304.51,939.64Z"/><path class="cls-8" d="M1310.62,959.45a2.17,2.17,0,0,1-.8-.55c-3.27-3.64-3.93-8-1.77-11.63a10.22,10.22,0,0,1,10.8-4.8,2.12,2.12,0,1,1-1,4.12,6,6,0,0,0-6.18,2.84c-1.21,2-.75,4.39,1.27,6.64a2.12,2.12,0,0,1-2.35,3.38Z"/><path d="M1274.52,941.21a6.5,6.5,0,1,1-6.5-6.51A6.5,6.5,0,0,1,1274.52,941.21Z"/><path d="M1227.14,941.21a6.5,6.5,0,1,1-6.5-6.51A6.5,6.5,0,0,1,1227.14,941.21Z"/><path class="cls-4" d="M1211.73,1782.44c2.49-24.8-10.31-213.56-10.31-213.56-36.19-165.94-22-284.73-22-284.73l62.2,4.37,24.52,93.77-11.63,156.61s4.36,12,6.67,21.69c12.49,52.28,0,114.75-7.64,156.39-3.57,19.3-9.11,59.85-9.26,69.07l15.63,20.2s-56.56,62.59-65.26,63c-16.91.76-11.93-16-11.93-16C1206,1829.38,1211,1789.54,1211.73,1782.44Z"/><path class="cls-6" d="M1260.91,1828.43l-3.11,40.21-7.23.33-3.66-37.35c-19.24,4.91-33,39.83-33,39.83-13.25,4.75-46.94,8-58.93,1.84-2.89-11.75,27.85-20,27.85-20,2.77,3.29,19.18,5.81,25,2.28,21.46-18.27,31.92-44.83,36.49-69.53C1244.31,1786.05,1278.22,1788.41,1260.91,1828.43Z"/><path class="cls-4" d="M1232.77,1296.22l87.63-12.07c33.52,75.84,44.44,207.89,53.54,254.93,36.53,61.24,48.13,247,48.13,247l15.63,20.2s-56.56,62.59-65.26,63c-16.91.76-11.93-16-11.93-16,23.25-23.87,27.78-55.58,29.28-62.56,2.27-10.49-70.92-216.53-70.92-216.53l-7.82-19.55C1221.66,1407,1207,1295.34,1207,1295.34Z"/><path class="cls-6" d="M1438.66,1828.43l-3.11,40.21-7.23.33-3.65-37.35c-19.24,4.91-33,39.83-33,39.83-13.25,4.75-46.93,8-58.92,1.84-2.9-11.75,27.84-20,27.84-20,2.78,3.29,19.19,5.81,25,2.28,21.45-18.27,31.92-44.83,36.49-69.53C1422.07,1786.05,1456,1788.41,1438.66,1828.43Z"/><path class="cls-10" d="M1395.68,1530.46c-8.75-29.28-4.94-238.86-82.2-295.84l-132.94,14c-30.72,49.73-19.45,179.13-9.11,285.62C1233.94,1556.55,1283.64,1565.5,1395.68,1530.46Z"/><path class="cls-11" d="M1178.92,1215.82c0-29.11-25.23-72.73-13.14-102.12,8.81-23.64,26.12-77,45-80.58,7.65-1.46,16,0,26.65-2.92,0,0-5.54,24.69,6.92,25.69,24,1.92,36.58-28.82,36.58-28.82,12.92-1.23,58,12.22,58,17.09-.14,38.14-16.91,99.81-27.05,141a185.14,185.14,0,0,0,1.71,49.16c3.84,12.38,8.53,19.48,8.56,22.15,0,0-88.87,30.2-145.41-.93C1176.7,1255.58,1178.92,1235.48,1178.92,1215.82Z"/><g id="c-2" data-name="c"><path class="cls-4" d="M1337,1243.49l-7.58,3s-7.89-12.56-15.9-12.16l4,12s-4.52,14-28.78,12.42c-20.72,4.71-6.22,14.54-12,18.48-8.46,5.8,15.27,20.06,35.27,13.91,25.88-8,42.69-32.39,42.69-32.39Z"/></g><path class="cls-4" d="M1337,1041.88s63.32,37.09,94,126c-27.54,30.53-50.74,7.75-50.74,7.75L1318.92,1115s-18-22.16-9.41-49.21C1317,1042.23,1337,1041.88,1337,1041.88Z"/><path class="cls-4" d="M1337,1243.49l44.27-64.83s10.45-24.87,49.71-10.79c1.9,21.11-13.38,51.17-83.4,97.48A154.59,154.59,0,0,0,1337,1243.49Z"/><path class="cls-9" d="M1244.33,1055.89c-2.14,10,3.66,21.93,20.37,16.32,20-6.71,29.36-44.28,29.36-44.28l-12.55-6.8S1272,1047.08,1244.33,1055.89Z"/><path class="cls-9" d="M1244.33,1055.89c-2.47,5.13-16.55,18.31-23.22,10.46s1.12-28.44,1.12-28.44l15.18-7.71S1231.46,1048.75,1244.33,1055.89Z"/><path class="cls-3" d="M1337,1041.88s63.32,37.09,94,126c-27.54,30.53-53.13,5.39-53.13,5.39l-59-58.25s-18-22.16-9.41-49.21C1317,1042.23,1337,1041.88,1337,1041.88Z"/><path class="cls-12" d="M2874.76,1036.38c-26.52,9.06-113.22,164.9-113.22,164.9l66.81,4.39,71.56-72.52Z"/><path d="M2964.09,1807.37c-24.72,33-85.41,12.74-83.4,57.33,92.29-.58,130.65,0,130.65,0-.12-10.24-1.94-34.55-4.07-44.07Z"/><path d="M3102.18,1808.24c-24.72,33-85.41,12.73-83.4,57.32,92.3-.57,130.65,0,130.65,0-.12-10.24-1.94-34.55-4.07-44.06Z"/><path class="cls-12" d="M2911,1302.71s-14.82,212.38-8.73,259.36,37.83,107.48,35.39,262.85c30.08,7.29,73.67,0,73.67,0s6.47-175.68-25.34-254.15c12.93-76.23,54.43-250.81,54.43-250.81Z"/><path class="cls-13" d="M3002.54,1310.15s1.38,234.47,16.19,279.46,43.6,77.09,70.42,230.15c30.92,1.5,75.44,2.14,75.44,2.14s-15.84-196.72-64-240.88c-1.63-77.29,18.23-272.35,18.23-272.35Z"/><polygon class="cls-2" points="2928.27 1004.33 2968.23 991.16 3010.26 993.13 2976.24 1049.13 2928.27 1004.33"/><path class="cls-4" d="M2942.57,1030.42a55.39,55.39,0,0,0,62-8.63l-8-63.1L2938,967.34Z"/><path class="cls-2" d="M3025.75,1012.61h0l-13.19-2-2.3-17.46-27.39,34.64-9.14,3.68-9.78-1.09-35.68-26,2.47,17.43-10.19,4.59h0l-37.08,15.06,44.38,214.78,1.37,71.36c55,5.29,113.19,1.27,167.59-19.33l-18.61-72.57-7.94-218Z"/><polygon class="cls-6" points="2966.49 1055.03 2973 1224.13 2989.97 1240.32 3005.01 1223.54 2979.43 1054.02 2966.49 1055.03"/><polygon class="cls-6" points="2954.07 1035.62 2969.07 1030.61 2986.53 1032.3 2979.48 1054.35 2966.51 1055.59 2954.07 1035.62"/><path class="cls-13" d="M2925.75,1012.49l22.68,189.31,19,132.93s-36.62,17.9-67.5-.41l-25.71-297.88Z"/><polygon class="cls-14" points="2926.46 1010.38 2950.31 1214.91 2902.38 1059.52 2926.46 1010.38"/><path class="cls-13" d="M3011.6,994.87l27.85,337s70.41,4.34,96.5-17.46L3108.74,1210l-40.92-215.6Z"/><polygon class="cls-14" points="3010.86 994.29 3028.59 1200.4 3046.16 1034.61 3010.86 994.29"/><path class="cls-4" d="M3011.74,911.41c-4.51,43.91-36.12,76.64-70.61,73.1s-58.8-42-54.29-85.92,36.12-76.64,70.61-73.1S3016.24,867.49,3011.74,911.41Z"/><path d="M2904.93,915a6.5,6.5,0,1,1,3.43-8.52A6.5,6.5,0,0,1,2904.93,915Z"/><path d="M2954.31,908.93a6.53,6.53,0,1,1-3.62-8.49A6.54,6.54,0,0,1,2954.31,908.93Z"/><path class="cls-8" d="M2919.66,906.49c-3.44,11-7.92,24.61-7.92,24.61s6.1,9.11,19.35,5.78c-6.2-.84-12.72-3.15-12.4-11.21S2919.66,906.49,2919.66,906.49Z"/><path class="cls-13" d="M2961.67,897.15a3,3,0,0,1-3.69-.52c-.23-.24-5.93-6-11.75-2.64a3,3,0,1,1-3-5.21c7.94-4.58,16,.41,19.1,3.69a3,3,0,0,1-.1,4.26A3.28,3.28,0,0,1,2961.67,897.15Z"/><path class="cls-13" d="M2890.33,903.93a3,3,0,0,0,3.48-1.33c.17-.28,4.44-7.16,10.86-5.17a3,3,0,1,0,1.78-5.75c-8.77-2.71-15.48,3.94-17.81,7.84a3,3,0,0,0,1,4.12A2.69,2.69,0,0,0,2890.33,903.93Z"/><path class="cls-13" d="M3005.32,913.9c-3.57-15.62-16.42-9.2-22.58-29.47s-11.69-35.45-30.46-27.59-24.51,4.32-33.46,1.49c-26.91-8.49-31.49,36.25-31.49,36.25s-22.49-33-5.47-54.33c18.86-23.65,26.77-9.76,44.82-27.44s50.23-15.88,59.29-4.46c9.55,12,12.91,21.44,33.37,26.73s33.2,19,20.61,42.43,18.76,31.23-5.77,55.81c-9.51,9.54-28.34,15.57-32.31,12.27C2996.55,941.17,3007.62,924,3005.32,913.9Z"/><path class="cls-13" d="M2887.2,922.34s5.65,20.93,11.15,26.89c.5-10.16,15.93-2.62,23.06-3.9,17.25-3.09,40.26-18.38,51.14,5.5,22.27-.06,28.47-48.62,28.47-48.62,16.59,48-7.47,85.36-61,93.56C2904.82,1001.18,2882.93,958.34,2887.2,922.34Z"/><path class="cls-4" d="M2997.38,903.91c-6.39,8.62-5.85,19.85,1.21,25.08s18,2.48,24.35-6.15,5.85-19.86-1.21-25.08S3003.77,895.28,2997.38,903.91Z"/><path class="cls-8" d="M3008.07,924.26a2.38,2.38,0,0,1-1-.44c-4.29-3.3-5.89-7.9-4.28-12.31a11.3,11.3,0,0,1,10.79-7.43,2.35,2.35,0,1,1-.22,4.69,6.68,6.68,0,0,0-6.16,4.35c-.9,2.46.07,4.93,2.73,7a2.35,2.35,0,0,1-1.87,4.17Z"/><path class="cls-8" d="M2933.32,960.7a22.67,22.67,0,0,1-4.31,1c-10.83,1.45-19.39-5.18-19.75-5.46a2.56,2.56,0,0,1,3.16-4h0c.07,0,7.3,5.59,16,4.4,5.65-.77,10.78-4.22,15.26-10.26a2.56,2.56,0,0,1,4.11,3C2943.51,955.12,2938.67,958.91,2933.32,960.7Z"/><polygon class="cls-9" points="2969.07 1030.61 3001.74 1053.67 3019.19 1004.73 3010.26 993.13 2969.07 1030.61"/><polygon class="cls-9" points="2969.07 1030.61 2948.98 1057.41 2922.77 1017.9 2928.27 1004.33 2969.07 1030.61"/><g id="с"><path id="с-2" data-name="с" class="cls-11" d="M2536.88,1615.17H2566a0,0,0,0,1,0,0v240.65a14.07,14.07,0,0,1-14.07,14.07h-1a14.07,14.07,0,0,1-14.07-14.07V1615.17A0,0,0,0,1,2536.88,1615.17Z"/><path id="с-3" data-name="с" class="cls-11" d="M2639,1615.17h29.11a0,0,0,0,1,0,0v240.65a14.07,14.07,0,0,1-14.07,14.07h-1a14.07,14.07,0,0,1-14.07-14.07V1615.17a0,0,0,0,1,0,0Z"/><path id="с-4" data-name="с" class="cls-11" d="M2802.09,1856.29c0,7.51-6.51,13.6-14.55,13.6h0c-8,0-14.55-6.09-14.55-13.6V1615.17h29.1Z"/><path id="с-5" data-name="с" class="cls-11" d="M2875.1,1615.17h29.11a0,0,0,0,1,0,0v240.65a14.07,14.07,0,0,1-14.07,14.07h-1a14.07,14.07,0,0,1-14.07-14.07V1615.17A0,0,0,0,1,2875.1,1615.17Z"/><path id="с-6" data-name="с" class="cls-2" d="M2728.64,1232.51v306.83a6.32,6.32,0,0,1-6.32,6.32H2532.07a34.75,34.75,0,0,0-34.75,34.76h0a34.75,34.75,0,0,0,34.75,34.75h231.32a34.75,34.75,0,0,0,34.76-34.75V1232.51a34.76,34.76,0,0,0-34.76-34.76h0A34.75,34.75,0,0,0,2728.64,1232.51Z"/><rect id="с-7" data-name="с" class="cls-2" x="2763.39" y="1197.75" width="150.41" height="353.55"/><path id="с-8" data-name="с" class="cls-11" d="M2879.05,1232.51v306.83a6.32,6.32,0,0,1-6.32,6.32H2682.49a34.76,34.76,0,0,0-34.76,34.76h0a34.75,34.75,0,0,0,34.76,34.75h231.32a34.75,34.75,0,0,0,34.75-34.75V1232.51a34.75,34.75,0,0,0-34.75-34.76h0A34.76,34.76,0,0,0,2879.05,1232.51Z"/></g><g id="c-3" data-name="c"><path class="cls-15" d="M2641.74,1184.79c-38.33,11.65-57.41,92.35-73.73,176.83-22.05,28.94-45.7,44.84-80.27,79,23.42,5.31,48.21-.91,48.21-.91s63.68.55,91.31-59.66c6.32-13.78,8.48-41.51,12.06-53.83C2640.89,1287.56,2641.74,1184.79,2641.74,1184.79Z"/><path class="cls-4" d="M2417.5,1828.28,2383,1837l-14.11-30.76c1.47-1.08,3.73-21.52,5.12-37.09l55.73,7.69C2427,1792.57,2422.37,1813.11,2417.5,1828.28Z"/><path class="cls-12" d="M2356.56,1846.41s-11.94-20.07-27.06-21.34c0,0-28.55,1.64-38.57,13.65-3.14,3.77-1.93,11.81-.69,17,.78,3.22,3.5,6.71,11.94,9.37,12.46,3.92,29.27,6.32,60.24-1.71,37.15-9.63,43.08-5.66,56.81-10.08,14.23-4.59,9.66-22,5.77-38.92C2425,1814.34,2414.65,1835.07,2356.56,1846.41Z"/><path class="cls-13" d="M2367.93,1803.26a144.39,144.39,0,0,1-38.26,15c-12.13,2.78-44.46,9-39.26,30.61.78,3.21,3.51,6.7,11.94,9.36,12.47,3.92,29.28,6.32,60.24-1.7,37.15-9.63,43.08-5.67,56.81-10.09,14.23-4.59,7.67-24.33,3.78-41.27h0c-.35,4.3-2.34,15.58-28.15,25.69C2387.33,1833.91,2393.62,1799.93,2367.93,1803.26Z"/><path class="cls-14" d="M2372.76,1829.24a2.93,2.93,0,0,1-2.65-2.22c-2.63-10.55-13.52-11.29-14-11.32a2.93,2.93,0,0,1,.3-5.86c5.41.26,16.42,3.9,19.37,15.76a3,3,0,0,1-2.14,3.56A3.08,3.08,0,0,1,2372.76,1829.24Z"/><path class="cls-14" d="M2359.14,1834.69a2.93,2.93,0,0,1-2.65-2.22c-2.62-10.54-13.52-11.28-14-11.31a2.93,2.93,0,0,1,.3-5.86c5.42.25,16.42,3.9,19.37,15.76a2.92,2.92,0,0,1-2.14,3.55A2.75,2.75,0,0,1,2359.14,1834.69Z"/><path class="cls-4" d="M2552.37,1841.29l-33.82,11.15-16.23-29.68c1.38-1.19,6.24-22.78,6.53-38.4l52.09,4.78C2559.32,1805,2556.17,1825.81,2552.37,1841.29Z"/><path class="cls-12" d="M2608.52,1456.21c-77.12,14.09-186.66,64-197.46,75.41-22.32,23.48-33.25,104.22-43.78,248l67.5,4.5c24.91-112.34,48.35-161.31,52.18-206.94,0,0,59.15,4.09,148.15-30.25,43.87-16.93,89.59-36.69,76.43-76.32C2701.06,1439.05,2682.06,1442.78,2608.52,1456.21Z"/><path class="cls-13" d="M2694.78,1462.93c-64.08,6.62-149.54,79.94-160.35,91.31-22.32,23.47-25.13,103.64-35.65,247.44l67.17,6.19c10.88-74.5,42.66-159.86,42.57-214.56,0,0,60.13-13,153.2-34,50.91-11.45,66.19-19.34,75.93-52.59,3.31-11.31,7.8-37.52,2.72-43.36C2817.89,1437.52,2755.43,1456.67,2694.78,1462.93Z"/><path class="cls-12" d="M2492.87,1863.66s-13.32-19.19-28.5-19.38c0,0-28.37,3.64-37.51,16.32-2.87,4-1.1,11.92.5,17,1,3.15,4,6.44,12.57,8.5,12.71,3,29.65,4.24,60-5.94,36.38-12.22,42.58-8.69,56-14.06,13.87-5.58,8.09-22.61,3-39.23C2558.88,1826.85,2550,1848.26,2492.87,1863.66Z"/><path class="cls-13" d="M2501.17,1819.82a144.1,144.1,0,0,1-37.11,17.67c-11.9,3.64-43.71,12.17-37,33.3,1,3.16,4,6.45,12.57,8.5,12.71,3,29.64,4.25,60-5.94,36.38-12.22,42.57-8.68,56-14.06,13.87-5.57,5.93-24.8.86-41.43h0c0,4.32-1.23,15.71-26.27,27.61C2522.68,1849,2526.57,1814.68,2501.17,1819.82Z"/><path class="cls-14" d="M2513.48,1846.51a2.92,2.92,0,0,1-2.64-2.22c-2.63-10.54-13.52-11.28-14-11.32a2.93,2.93,0,0,1,.3-5.85c5.42.25,16.43,3.9,19.38,15.76a2.93,2.93,0,0,1-2.14,3.55A2.81,2.81,0,0,1,2513.48,1846.51Z"/><path class="cls-14" d="M2499.87,1852a2.92,2.92,0,0,1-2.65-2.22c-2.62-10.54-13.52-11.29-14-11.32a2.93,2.93,0,0,1,.3-5.86c5.41.26,16.42,3.91,19.37,15.76a2.94,2.94,0,0,1-2.14,3.56A3.05,3.05,0,0,1,2499.87,1852Z"/><polygon id="v-2" class="cls-4" points="2737.09 1120.2 2737.06 1120.2 2711.49 1120.3 2705.7 1180.68 2735.55 1196.44 2767.37 1180.86 2762.23 1120.3 2737.09 1120.2"/><path class="cls-13" d="M2739.52,1111.84c22.5,6.32,39.08-21.08,39.08-21.08,14.4-.12,14.23-14.47,14.23-14.47,7-1,17-6.76,16.12-19.92-.74-11.14-11.37-12.29-10.75-25.11.49-10.29,11.64-33.94-20.35-40.92,0,0,2.16-18.93-16.53-26.46-22.91-9.23-31,4.13-41.86,5.07-12.09,1-35.44-13.59-42.92,12.84,0,0-16.69-2.21-26.22,8.69-8.88,10.15-7,25.2-3,31.25,0,0-14,2.45-19.08,14.6-3.38,8.14-1.79,19.6,5.81,26.22a24.78,24.78,0,0,0,9.88,5.33c5.3,1.74,3.36,16.37,7.71,19.94a111.39,111.39,0,0,0,23,14.09Z"/><path class="cls-4" d="M2781.44,1076.2c-1.47,42.33-34.64,78.81-67.88,77.65s-54-39.51-52.5-81.83,29.61-75.7,62.85-74.55S2782.91,1033.88,2781.44,1076.2Z"/><path d="M2680.41,1087.41a5.79,5.79,0,1,1-4.09-7.08A5.78,5.78,0,0,1,2680.41,1087.41Z"/><path d="M2728.23,1085.64a6.26,6.26,0,1,1-4.43-7.66A6.26,6.26,0,0,1,2728.23,1085.64Z"/><path class="cls-8" d="M2698.89,1087.19c-5.26,8.46-11.94,18.77-11.94,18.77s3.1,8.9,14.85,9c-5-2-9.9-5.39-7.88-12S2698.89,1087.19,2698.89,1087.19Z"/><path class="cls-13" d="M2734.21,1077.56a3.36,3.36,0,0,0,.6-.3,2.89,2.89,0,0,0,.84-4c-2.39-3.64-9.09-9.75-17.39-6.8a2.89,2.89,0,0,0,1.93,5.44c6.15-2.18,10.58,4.45,10.63,4.52A2.89,2.89,0,0,0,2734.21,1077.56Z"/><path class="cls-13" d="M2678.84,1074.6a2.48,2.48,0,0,0,1-.72,2.41,2.41,0,0,0-.31-3.39,11.88,11.88,0,0,0-8.77-2.47c-3.27.54-6.08,2.69-8.35,6.39a2.4,2.4,0,0,0,4.1,2.51c1.5-2.45,3.2-3.85,5-4.15a7,7,0,0,1,4.91,1.41A2.4,2.4,0,0,0,2678.84,1074.6Z"/><path class="cls-13" d="M2650.59,1029.79l71.12-46.65,73.66,52.7-18.53,56.06c2-26.89-15.6-20.77-22.85-29.81s-9.2-22-30.91-14.17c0,0-14.6-13.67-25.33.88-8.31,11.24-16.73,7.58-25.57,6.9-10.43-.79-9.48,9.6-15.74,8.32Z"/><path class="cls-4" d="M2772.08,1072.87c-6.52,7.54-6.8,18-.64,23.3s16.45,3.54,23-4,6.8-18,.64-23.29S2778.59,1065.34,2772.08,1072.87Z"/><path class="cls-8" d="M2780.54,1092.45a2.12,2.12,0,0,1-.88-.48c-3.74-3.35-4.9-7.71-3.1-11.69a10.5,10.5,0,0,1,10.5-6.11,2.18,2.18,0,1,1-.53,4.32,6.23,6.23,0,0,0-6,3.59c-1,2.21-.27,4.57,2,6.65a2.17,2.17,0,0,1-2,3.72Z"/><path class="cls-9" d="M2688.8,1131.06a1.92,1.92,0,0,1,1.41-3.23,135.91,135.91,0,0,0,35.85-4.07,1.92,1.92,0,0,1,2.09,2.84c-2.6,4.49-8.24,11.5-18.49,12.67S2692.35,1134.86,2688.8,1131.06Z"/><g id="v"><path id="v-25" class="cls-16" d="M2790.77,1195.76a165,165,0,0,0-57.68-8.6c-66.34,0-76.49,16.76-76.49,16.37l49.23,135.18,27.26,13.46,29.84-8.84S2801.61,1199.79,2790.77,1195.76Z"/><path class="cls-6" d="M2840.36,1464.56s-53.5,5.52-103.63,5.85c-50.14-.37-103.64-10.09-103.64-10.09s6.74-92.08,6-127.43c-1-40.61,2.6-94.44,2.6-148.1,0,0,35.56-5.72,55.63-8.2,3.26-.4,6.1-.71,8.33-.91,0,0,11.43,24,61.23,0a63,63,0,0,1,9.48,0c20.92,1.25,54.62,9.14,54.62,9.14,0,53.51,2.16,106,1.44,146.56C2834.69,1367.57,2840.36,1464.56,2840.36,1464.56Z"/></g><g id="c-4" data-name="c"><path class="cls-4" d="M2708.46,1300.78l-12.14-7s-3.36-17.22-22.85-17.63l5.45,17.63s-9.59,7.45-32.35-5.3c-22.24-5-12.74,11.22-20.11,12.39-10.88,1.71,7.93,23.09,30.14,26.36,28.74,4.23,32.15-1.65,32.15-1.65l16.26,5.68Z"/><path id="c-5" data-name="c" class="cls-15" d="M2820.78,1319.18c-40.57-2.84-109.78-22.88-109.78-22.88-11.07,17-8,39.55-8,39.55,63,55.24,157.82,73.09,186.92,59.8,26.56-12.14,7.81-173.82-58.88-210.86l-2.31.22C2805.85,1223.69,2820.78,1319.18,2820.78,1319.18Z"/></g><path class="cls-15" d="M2776.41,1175.65h0c-3.46,5.79-8.36,10.16-15.28,13.64-10.94,5.52-25.82,7.86-35,7.15-7.25-.57-15.29-3.53-20.45-7.62-5.47-4.34-7.85-9.88-8.33-12.23,3.26-.4,6.6-.91,8.83-1.1,0,0,10.93,24.17,60.73.19A63,63,0,0,1,2776.41,1175.65Z"/></g><path class="cls-17" d="M3070.31,1470.41h-855a18.61,18.61,0,0,1-18.62-18.62h0a18.62,18.62,0,0,1,18.62-18.62h855a18.62,18.62,0,0,1,18.62,18.62h0A18.62,18.62,0,0,1,3070.31,1470.41Z"/><rect class="cls-17" x="2220.93" y="1459.34" width="32.47" height="410.56" rx="15.94"/><path class="cls-17" d="M3050.22,1459.34h.58a15.94,15.94,0,0,1,15.94,15.94v378.67a15.94,15.94,0,0,1-15.94,15.94h-.58a15.95,15.95,0,0,1-15.95-15.95V1475.28a15.94,15.94,0,0,1,15.94-15.94Z"/><path class="cls-18" d="M2612.26,1433.5H2397.82l-42.33-134.58a9.65,9.65,0,0,1,9.2-12.55h194.22a9.65,9.65,0,0,1,9.2,6.76Z"/><path class="cls-19" d="M2596,1433.5H2381.55l-42.33-134.58a9.66,9.66,0,0,1,9.2-12.55h194.22a9.66,9.66,0,0,1,9.21,6.76Z"/><path class="cls-20" d="M2469.75,1362.59c2.36,8.31-1.85,16.79-9.4,18.94s-15.58-2.86-17.94-11.17,1.84-16.79,9.39-18.94S2467.38,1354.28,2469.75,1362.59Z"/><path class="cls-18" d="M2734.09,1419.45H2596v13.72h151.81A13.72,13.72,0,0,0,2734.09,1419.45Z"/><path class="cls-2" d="M2278.67,1340.62h57a9,9,0,0,1,9,9v83.56a0,0,0,0,1,0,0h-75a0,0,0,0,1,0,0v-83.56A9,9,0,0,1,2278.67,1340.62Z"/><path class="cls-2" d="M2275.35,1424.44h-16.89a15.77,15.77,0,0,1-15.75-15.75v-30.44a15.77,15.77,0,0,1,15.75-15.74h14a7,7,0,0,1,0,14h-14a1.76,1.76,0,0,0-1.76,1.76v30.44a1.76,1.76,0,0,0,1.76,1.76h16.89a7,7,0,0,1,0,14Z"/><path class="cls-4" d="M2881.41,1294.39c9.59-4.59,20.3-7.28,23.58-21,0,0,26-6.9,53.14-12.94,0,0-33.1-30.34-33.13-30.33-10.76,3.64-30.62,17-42.77,17.36-3.16.08-6.33,0-9.49,0-7.73-.06-15.77-1-24,5.13-32,23.55-44.48,19.55-45.77,22.27-1.08,4.25,7.53,12.35,23.82,4.19,15.76-7.89,24.13-8,24.13-8s-.26,13.76,5.2,17.7C2858.56,1290.6,2870.2,1299.74,2881.41,1294.39Z"/><path class="cls-12" d="M2912.76,1229s84.86-40.92,149.36-54.17c-8.91-32.28,5.63-181.43,5.63-181.43s43.57,10.69,65.21,91.48-28,163-28,163-133.78,37.18-181.62,23.57C2915.84,1269.34,2912.76,1229,2912.76,1229Z"/><path class="cls-3" d="M1005.53,1739.31l38.9,124c1,3.31,2.77,5.3,4.62,5.3h0c3.43,0,6-6.62,5.51-13.94l-8.47-115.4Z"/><path class="cls-3" d="M646.72,1739.31l-38.9,124c-1,3.31-2.77,5.3-4.62,5.3h0c-3.43,0-6.05-6.62-5.51-13.94l8.47-115.4Z"/><path class="cls-3" d="M461.67,1739.31l-38.9,124c-1,3.31-2.77,5.3-4.62,5.3h0c-3.43,0-6-6.62-5.51-13.94l8.47-115.4Z"/><path class="cls-11" d="M684.62,1444.86h359a33.89,33.89,0,0,1,33.89,33.89v221.54a43.58,43.58,0,0,1-43.58,43.58H684.62a0,0,0,0,1,0,0v-299A0,0,0,0,1,684.62,1444.86Z"/><path class="cls-3" d="M597.62,1444.86h359a33.89,33.89,0,0,1,33.89,33.89v221.54a43.58,43.58,0,0,1-43.58,43.58H597.62a0,0,0,0,1,0,0v-299A0,0,0,0,1,597.62,1444.86Z"/><path class="cls-11" d="M521.61,1276.61H779.81a31.47,31.47,0,0,1,31.47,31.47v212.4a0,0,0,0,1,0,0H521.61a0,0,0,0,1,0,0V1276.61A0,0,0,0,1,521.61,1276.61Z"/><path class="cls-21" d="M490.43,1515.37H951.5a39.73,39.73,0,0,1,39.73,39.73v45.82a0,0,0,0,1,0,0H490.43a0,0,0,0,1,0,0v-85.56A0,0,0,0,1,490.43,1515.37Z"/><rect class="cls-11" x="490.43" y="1590.98" width="500.8" height="153.11"/><path class="cls-3" d="M453.38,1276.61h68.23a0,0,0,0,1,0,0v243.88a0,0,0,0,1,0,0H420.86a0,0,0,0,1,0,0V1309.14A32.52,32.52,0,0,1,453.38,1276.61Z"/><path class="cls-12" d="M726.81,1009.47A48.45,48.45,0,1,1,678.36,961,48.45,48.45,0,0,1,726.81,1009.47Z"/><path class="cls-13" d="M801.73,1146c22.83-22.11,46.81-114.88-16.59-142.91-60-26.54-135.71,10.55-138.6,74.27S692.32,1172,692.32,1172Z"/><path class="cls-4" d="M1078.65,1701.91l19.12,26.75s17.07,21.76,37.43,11.54,11.34-42.91,11.34-42.91l-23.39-30.8Z"/><path class="cls-13" d="M1145.74,1693.74a153.09,153.09,0,0,0,42.89-7.8c12.49-4.26,45.15-16.64,52.48,5.71,1.1,3.33.58,8-5.54,15.1-9.06,10.49-22.88,22-55.29,32.08-38.87,12-42,18.93-56.86,22.6-15.39,3.8-20.48-17.67-26.44-35.11h0c2.72,3.68,10.81,12.75,39.73,7.46C1145.34,1732.2,1120.7,1705.07,1145.74,1693.74Z"/><path class="cls-4" d="M916.72,1793.86V1812s1.23,27.64,23.73,31.17,34.18-28.32,34.18-28.32l-.82-28.57Z"/><path class="cls-15" d="M830.5,1342.07c-11-.1-33.47,40.15-31.56,43.48,26.61,29.52,130.56,32.55,130.56,32.55L942,1405.29S880.21,1377,830.5,1342.07Z"/><path class="cls-15" d="M731.93,1249.86c10.11,30.4,56,132,67,135.69l31.56-43.48s-47.78-106.64-56-122.53C760.26,1192,715.34,1200.26,731.93,1249.86Z"/><path class="cls-4" d="M734.77,1150.11s4.38,39.25,6.2,53.69l-51.26,13c-6.59-44-7.09-99.32-7.09-99.32Z"/><path class="cls-4" d="M680.93,1092.9c-2.53,47.15,25.43,87,62.46,89s69.09-34.62,71.62-81.76-25.43-87-62.46-89S683.46,1045.76,680.93,1092.9Z"/><path d="M795.38,1106.85a6.45,6.45,0,1,0,5.24-7.47A6.46,6.46,0,0,0,795.38,1106.85Z"/><path d="M743.27,1104.41a7,7,0,1,0,5.67-8.08A7,7,0,0,0,743.27,1104.41Z"/><path class="cls-13" d="M737.52,1096.67a2.41,2.41,0,0,0,1.4-.78c5.5-6.24,15-5,15.07-5a2.43,2.43,0,0,0,.71-4.8c-.49-.08-12.16-1.71-19.43,6.54a2.43,2.43,0,0,0,2.25,4Z"/><path class="cls-13" d="M811.52,1101.89a2.31,2.31,0,0,0,.75-.26,2.42,2.42,0,0,0,1-3.3,17,17,0,0,0-15-8.79,2.43,2.43,0,0,0,.2,4.85,12.19,12.19,0,0,1,10.58,6.28A2.42,2.42,0,0,0,811.52,1101.89Z"/><path class="cls-8" d="M787.41,1119.11c2.36,4.5,4.27,9,6.9,12a2.56,2.56,0,0,1-.16,3.5c-4,3.86-12.77,5.42-18,6a.68.68,0,0,1-.36-1.3c6-2.74,8.89-5.19,10.24-6.62a3.06,3.06,0,0,0,.78-2.65c-.4-2.2-1.17-6.68-1.52-10.3A1.15,1.15,0,0,1,787.41,1119.11Z"/><path class="cls-8" d="M756.86,1161.42c-16.82-5-20.74-17.54-20.94-18.2a2.68,2.68,0,0,1,5.14-1.53c.22.7,5.47,16.65,31.64,16.39a2.68,2.68,0,1,1,0,5.36A54.17,54.17,0,0,1,756.86,1161.42Z"/><path class="cls-13" d="M675.67,1092.75c42.91,6.72,118.68-22.17,129.82-42.33-.29-28.29-38.94-53.94-66.52-49.07S667.88,1055,675.67,1092.75Z"/><path class="cls-4" d="M697.48,1089.71c6.46,9,5.7,20.64-1.69,25.92s-18.61,2.26-25.07-6.77-5.71-20.64,1.68-25.93S691,1080.68,697.48,1089.71Z"/><path class="cls-8" d="M686.08,1110.58a2.5,2.5,0,0,0,1-.44c4.5-3.34,6.24-8.07,4.64-12.66a11.68,11.68,0,0,0-11-7.86,2.43,2.43,0,1,0,.15,4.85,6.93,6.93,0,0,1,6.3,4.6c.88,2.56-.16,5.1-2.95,7.17a2.43,2.43,0,0,0,1.87,4.34Z"/><path class="cls-19" d="M754.11,1532.8l218.39-9.33s10.77-54.51,2.67-76.12-208.76-17.15-208.76-17.15Z"/><path class="cls-18" d="M689.88,1392.85c-5.92,13.67-29,54.38-26.76,87.37,2.3,34.06,26.33,63.71,67,63.07,0,0,76.65-43.58,60-132.83C790.17,1410.46,750.05,1394.79,689.88,1392.85Z"/><path class="cls-18" d="M724.06,1551.06l192.37,18.15s66-27.85,65.61-51.5-194.21-88.36-194.21-88.36C674.15,1396.19,636.26,1537.29,724.06,1551.06Z"/><path class="cls-18" d="M982,1517.71l-3.85,271.35s-48,20.24-64.85.16c-8-92.1-45.77-173.69-3.55-229.83C966.34,1484.19,982,1517.71,982,1517.71Z"/><path class="cls-19" d="M974.7,1446.72l160.09,219.84s-35.73,47.76-60.68,42.17c-43-54.47-130.14-118.34-130.7-186.88C942.67,1430.05,974.7,1446.72,974.7,1446.72Z"/><path class="cls-6" d="M687.48,1199.62l53.89-.6c24.72,28.76,49.82,53.46,54.26,73.1,5.84,25.85,4.75,165.52,4.75,165.52-45.33,16.59-96,1.81-129-10.46,8.28-68.73-46.92-146-14.8-198.3C664.58,1215.83,675.26,1209.62,687.48,1199.62Z"/><path class="cls-13" d="M976,1811.49a153.3,153.3,0,0,0,39.43,18.6c12.64,3.8,46.41,12.72,39.38,35.17-1,3.34-4.18,6.85-13.3,9.06-13.46,3.27-31.42,4.62-63.62-6.06-38.63-12.81-45.19-9-59.4-14.68-14.74-5.86-6.4-26.29-1.09-43.94h0c.07,4.57,1.38,16.65,28,29.17C953.36,1842.55,949.09,1806.15,976,1811.49Z"/><path class="cls-13" d="M794.12,1449.08H968.64l34.45-109.54a7.84,7.84,0,0,0-7.49-10.2H837.54a7.85,7.85,0,0,0-7.49,5.49Z"/><path class="cls-14" d="M807.36,1449.08h167a10.22,10.22,0,0,0,9.74-7.15l32.2-102.39a7.85,7.85,0,0,0-7.49-10.2H850.78a7.85,7.85,0,0,0-7.49,5.49Z"/><path class="cls-22" d="M910.11,1391.36c-1.93,6.77,1.5,13.67,7.64,15.41s12.68-2.32,14.6-9.09-1.5-13.66-7.64-15.41S912,1384.6,910.11,1391.36Z"/><path class="cls-13" d="M700.91,1432.85H807.36a0,0,0,0,1,0,0v3.56A12.38,12.38,0,0,1,795,1448.8H700.91a0,0,0,0,1,0,0v-15.95A0,0,0,0,1,700.91,1432.85Z" transform="translate(1508.27 2881.66) rotate(180)"/><path class="cls-4" d="M787,1440.86c-12.49-.11-28.9,2.27-28.52-4.2s6.83-8.85,7.6-16.63c.7-6.9-22.47-5.12-37.12,17.65l-4.32-2.39-12.39,21.09,7.83,2.9c13.25,15.93,53.19,24.08,76.66,11.65C820.55,1458.34,799.53,1441,787,1440.86Z"/><path class="cls-15" d="M637.63,1236.85c-15.4,33.85-72.1,110.7-59.73,153.23,8.66,29.78,136.92,73.35,136.92,73.35L727,1432.37l-89.13-66.32s52-101.43,57.42-120.62C704.76,1211.89,661.83,1183.63,637.63,1236.85Z"/><path class="cls-6" d="M684.1,1180.16l1.24,21.19h56v-16.94S703.87,1182.89,684.1,1180.16Z"/><path class="cls-11" d="M507.86,1444.86H726a33.89,33.89,0,0,1,33.89,33.89v221.54a43.58,43.58,0,0,1-43.58,43.58H507.86a0,0,0,0,1,0,0v-299a0,0,0,0,1,0,0Z"/><path class="cls-3" d="M420.86,1444.86H639a33.89,33.89,0,0,1,33.89,33.89v221.54a43.58,43.58,0,0,1-43.58,43.58H420.86a0,0,0,0,1,0,0v-299a0,0,0,0,1,0,0Z"/><path class="cls-18" d="M202.61,1793.31c-16.49,69.25-75.44,31.16-63.12,74.93a7.85,7.85,0,0,0,7.33,5.51l34.62,1.33a15.62,15.62,0,0,0,9.39-2.72c18.26-12.5,30.65-30.11,70.09-32.25-.3-16.84.47-40.88-5.1-49.48Z"/><path class="cls-12" d="M293.83,1307.31s-100.67,153.54-114.57,201.31,15.18,128.69,9.92,291.79c31.46,8.16,73.42,1.14,73.42,1.14s25.25-204.58-4.45-252.88c44.5-67.91,156.28-216.16,156.28-216.16Z"/><path class="cls-18" d="M349.66,1815.63c-25.61,34.87-89.55,14.25-87,61,96.92-1.55,137.2-1.33,137.2-1.33-.23-10.76-2.39-36.26-4.73-46.23Z"/><path class="cls-13" d="M319.64,1276.27s-32.11,250.51-24.7,299.69,30.37,87.69,31.18,250.87c31.75,7,80.26,13.28,80.26,13.28s20.46-196.82-21.62-251c11.93-80.31,68.76-282.3,68.76-282.3Z"/><path class="cls-15" d="M155.18,1166,116,1122.1a4.6,4.6,0,0,0-3.33-1.51l-32.23-.2c-.92,0-3.76,5.08-3.14,5.76l27.6,24.54a1.12,1.12,0,0,0,.47.3l47.35,17.56C153.77,1168.86,155.89,1166.78,155.18,1166Z"/><path class="cls-6" d="M152.19,1168.93l-37.29-41.37a4.57,4.57,0,0,0-3.33-1.52l-33.22-.6a1,1,0,0,0-.8,1.75l26.25,29a1.15,1.15,0,0,0,.48.3l46.82,14.2A1.05,1.05,0,0,0,152.19,1168.93Z"/><path class="cls-4" d="M225.85,1206.67l-27-13.22s-26.6-26.91-30.55-32.93c-5.91-3-17.11-10.53-19.62-10.82a41.38,41.38,0,0,0-7.68.49l12.49,14.2s-5.93,1.18-13.5-3.63-20.93-17.69-27.47-15.19l-2.32,2s-4.13-4.41-8-2.77,3.85,21.07,25.84,41.67c1.46,5.49,8.7,15.13,8.7,15.13l44.46,15.62Z"/><path class="cls-15" d="M108.83,1133.8c1.58,1.58,3.85,1.87,5.07.65s.93-3.49-.65-5.07-3.85-1.87-5.07-.65S107.25,1132.22,108.83,1133.8Z"/><path class="cls-4" d="M351.42,1008.39c-8,10.37,54.66,21.65,63.06.1s-6-80.83-6-80.83l-57.14,12.13S361.83,994.89,351.42,1008.39Z"/><ellipse class="cls-4" cx="355.76" cy="886.12" rx="65.55" ry="83.46" transform="translate(-90.54 41.97) rotate(-5.99)"/><path d="M311.84,906.45a6.82,6.82,0,1,1-4.12-8.72A6.82,6.82,0,0,1,311.84,906.45Z"/><path d="M356.59,896.68a7.39,7.39,0,1,1-4.46-9.45A7.39,7.39,0,0,1,356.59,896.68Z"/><path class="cls-8" d="M324.87,905c-1.44,10.74-3.46,24-3.46,24s7.06,7.45,18.77,2.3c-5.85.2-12.23-.92-13.19-8.4S324.87,905,324.87,905Z"/><path class="cls-12" d="M309.84,890.87a2.6,2.6,0,0,1-2.59.06,7.64,7.64,0,0,0-5.59-.47c-1.88.71-3.38,2.56-4.47,5.48a2.62,2.62,0,0,1-4.91-1.83c1.65-4.42,4.2-7.31,7.58-8.57,5-1.85,9.69.68,9.89.79a2.61,2.61,0,0,1,.09,4.54Z"/><path class="cls-12" d="M343.88,883.41a2.61,2.61,0,0,0,2.47-.79,7.56,7.56,0,0,1,5.12-2.29c2,.06,4,1.3,6,3.7a2.61,2.61,0,1,0,4-3.33c-3-3.64-6.36-5.53-10-5.61-5.29-.11-8.92,3.84-9.08,4a2.61,2.61,0,0,0,.19,3.69A2.54,2.54,0,0,0,343.88,883.41Z"/><path class="cls-12" d="M407.57,908.39c-23.72-19.85-17.17-50.19-17.17-50.19-11.5.75-14.72,5.67-14.72,5.67-9.25-10.62-7-20.62-7-20.62-24.93-2.72-32.23,14.91-51.25,25.32C291.37,882.82,254,881,241.56,847.81a6,6,0,0,1,7.62-7.8,26.43,26.43,0,0,0,16.37.35,28.3,28.3,0,0,1-10.36-14,6,6,0,0,1,8.37-7.11c7.09,3.26,19.07,4.92,37.27-3.83,12.11-5.83,35.81-34.12,55.08-35,15.75-.75,31,8.73,40.91,25.48,0,0,37.58-6.06,52.08,33.18,14.25,38.55-39.16,98.11-39.16,98.11S413.84,914.5,407.57,908.39Z"/><path class="cls-9" d="M327.77,948.83a2,2,0,0,1,.6-3.64,167.52,167.52,0,0,0,18.14-5.46,167.25,167.25,0,0,0,17.25-7.81,2,2,0,0,1,2.84,2.35c-1.49,5.23-5.44,13.79-15.55,17.58S332.34,951.78,327.77,948.83Z"/><path class="cls-4" d="M390.68,881.39C383,889,381.76,900.29,388,906.6s17.54,5.27,25.25-2.35,8.92-18.9,2.69-25.21S398.4,873.77,390.68,881.39Z"/><path class="cls-8" d="M398.18,903.36a2.37,2.37,0,0,1-.91-.6c-3.78-4-4.66-8.79-2.36-13a11.42,11.42,0,0,1,11.92-5.73,2.37,2.37,0,1,1-.95,4.65,6.77,6.77,0,0,0-6.83,3.38c-1.27,2.31-.69,4.93,1.65,7.38a2.37,2.37,0,0,1-2.52,3.87Z"/><path class="cls-19" d="M281.77,1325.7c44.7,9.12,125.05,24.87,167.56,8.3,16.08-23.09,20.15-153.67,20.15-153.67C474.14,1045.93,458,1026,421.67,981c-15.25,7-53.43,13-70.22,13.11,0,0-38,52.8-45.45,91.15-7.52,38.88-8.38,108-9.07,147.6C296.15,1276.8,287.46,1298,281.77,1325.7Z"/><path class="cls-18" d="M427,1021.76c26.14,50.89,20.22,107.25-55.8,218.21-53.24-4.64-63.68-49-63.68-49s14.63-55.09,33.63-124.38S415.52,999.48,427,1021.76Z"/><path class="cls-18" d="M194.55,1180.33l114,9.1s48.88-8.92,62.63,50.54c-24.47,19-87.62,26.19-191.21-12.27C190.92,1212.78,194.55,1180.33,194.55,1180.33Z"/><polygon class="cls-9" points="351.8 990.3 350.71 1020.96 427.83 988.62 418.5 963.82 351.8 990.3"/><g id="c-6" data-name="c"><polygon id="v-2-2" data-name="v-2" class="cls-4" points="1615.28 950.8 1615.31 950.8 1643.32 950.9 1649.67 1017.06 1616.97 1034.33 1582.1 1017.26 1587.73 950.9 1615.28 950.8"/><path class="cls-4" d="M1556.47,906.39c6.75,45.91,41.45,78.82,77.51,73.52s59.81-46.82,53.06-92.73-41.46-78.82-77.52-73.52S1549.71,860.48,1556.47,906.39Z"/><path d="M1669.44,897.51a6.34,6.34,0,1,0,3.59-8.21A6.33,6.33,0,0,0,1669.44,897.51Z"/><path d="M1618.76,905.32a6.86,6.86,0,1,0,3.89-8.89A6.87,6.87,0,0,0,1618.76,905.32Z"/><path class="cls-8" d="M1657.73,905.11c6.76,8.57,15.29,19,15.29,19s-2.3,10.07-15.08,11.62c5.17-2.83,10.12-7.07,7.12-14.05S1657.73,905.11,1657.73,905.11Z"/><path class="cls-12" d="M1607.58,898.4a3.09,3.09,0,0,1-.7-.25,3.16,3.16,0,0,1-1.39-4.25c2.15-4.26,8.71-11.72,18.1-9.52a3.16,3.16,0,1,1-1.44,6.16c-7-1.63-11,6.14-11,6.22A3.14,3.14,0,0,1,1607.58,898.4Z"/><path class="cls-12" d="M1666.1,882.93a2.54,2.54,0,0,1-1.21-.66,2.65,2.65,0,0,1-.08-3.73c.16-.16,3.94-4,9.25-3.75,3.63.19,7,2.18,9.87,5.94a2.63,2.63,0,0,1-4.16,3.23c-1.93-2.49-4-3.8-6-3.91a7.61,7.61,0,0,0-5.17,2.14A2.64,2.64,0,0,1,1666.1,882.93Z"/><path class="cls-12" d="M1541.05,869.62c-4.53-43.77,35.56-58.72,35.56-58.72s-9.07-3-7.06-16.33a35.16,35.16,0,0,0,21.66,4.69c50-5.67,81.68,2.13,77,21.84-1.67,7,30.74,9.57,16.91,56.14-1.24-3.27-6.11-25.38-15.91-29.77s-3.82,11.55-26,9.37c-22.36-2.2-37-11.26-53.17-2.22-12.9,8.18-32.08,68.49-29,70.61C1551.5,918.65,1543,888.85,1541.05,869.62Z"/><path class="cls-12" d="M1687.74,912.29s-3.92,25.05-9.28,31.81c-1.33-10.75-11.75-2.19-19.43-3-18.54-1.92-49.54-15.67-59.21,10.53-23.63,1.7-37.39-47.86-37.39-47.86-13.82,52.23,21.92,88.87,79.34,93.36C1679.59,1000.1,1695.11,950.16,1687.74,912.29Z"/><path class="cls-8" d="M1637.8,953.6a47.45,47.45,0,0,1-10-7,2.11,2.11,0,0,1,2.79-3.16c7.43,6.59,14.75,9.71,21.76,9.28a22,22,0,0,0,14-6.53,2.11,2.11,0,0,1,3.18,2.78,26,26,0,0,1-16.88,7.95A28.47,28.47,0,0,1,1637.8,953.6Z"/><path class="cls-4" d="M1571.28,897.81c8,7.41,9.59,18.73,3.52,25.29s-17.47,5.86-25.48-1.55-9.59-18.73-3.52-25.28S1563.27,890.41,1571.28,897.81Z"/><path class="cls-8" d="M1564.45,920.16a2.38,2.38,0,0,0,.9-.63c3.67-4.1,4.4-9,2-13.1a11.49,11.49,0,0,0-12.18-5.38,2.39,2.39,0,1,0,1.11,4.64,6.8,6.8,0,0,1,7,3.18c1.36,2.29.86,4.94-1.41,7.48a2.39,2.39,0,0,0,2.66,3.81Z"/><path d="M1666.39,1816.36c24.77,34.17,85.6,13.2,83.58,59.42-92.49-.59-130.93,0-130.93,0,.12-10.61,2-35.81,4.08-45.68Z"/><path d="M1528,1817.25c24.76,34.18,85.59,13.21,83.57,59.43-92.49-.6-130.93,0-130.93,0,.12-10.62,1.95-35.82,4.08-45.68Z"/><path class="cls-3" d="M1709.21,1294.65s15,219,8.92,267.72-27.71,111.12-25.26,272.18c-30.15,7.55-73.83,0-73.83,0s-6.48-182.12,25.4-263.46c-13-79-54.56-260-54.56-260Z"/><path class="cls-11" d="M1652.14,1300.64s-30.32,245.89-45.17,292.53-27.76,80.8-54.63,239.47c-31,1.55-75.74.59-75.74.59s4.05-196.58,52.31-242.35c1.63-80.13-7.8-288.67-7.8-288.67Z"/><g id="v-2-3" data-name="v"><path id="h-5" class="cls-6" d="M1512.35,1021.57s52.67-18.44,70.23-10c54.57,26.28,67.09,0,67.09,0,17.43,1.51,70.07,10,70.07,10,0,58.78,3.93,117.77,2.86,162.26-.75,38.74,6.63,144.16,6.63,144.16s-58.06,15.23-113,15.62c-54.93-.35-110.84-15-110.84-15s2.93-106.78,5.37-146.46C1510,1137.66,1512.35,1080.19,1512.35,1021.57Z"/></g><g id="c-7" data-name="c"><path id="c-8" data-name="c" class="cls-15" d="M1813.36,1108.94c-21.74-51.87-86.24-84.86-93.62-87.37l-15,66.58a390.71,390.71,0,0,1,53.49,38.15c-3.82,18.54-3.18,36.73-13.91,60.17,0,0,9.32-12.86,20.82-5.25,11.18,7.4,31.74-7.7,31.74-7.7S1830,1148.55,1813.36,1108.94Z"/></g><g id="c-9" data-name="c"><g id="c-10" data-name="c"><g id="c-11" data-name="c"><path id="c-12" data-name="c" class="cls-11" d="M1801.25,1240a6.29,6.29,0,0,0,1.13.23h1.24a5.89,5.89,0,0,0,5-4.11l58-186.84a5.53,5.53,0,0,0,.23-1.13,6,6,0,0,0,0-.73c0-.15,0-.3,0-.45s0-.26-.07-.38a5.87,5.87,0,0,0-4-4.67,6.51,6.51,0,0,0-1.1-.24,6.63,6.63,0,0,0-1.26,0H1714.45L1656,1240.24h145.36Z"/><path id="c-13" data-name="c" class="cls-3" d="M1715.78,1041.93a5.89,5.89,0,0,0-7.37,3.87l-57.59,186.38-.13.43a5.89,5.89,0,0,0,3.86,7.35h0a5.88,5.88,0,0,0,7.37-3.87l57.74-186.81A5.88,5.88,0,0,0,1715.78,1041.93Z"/></g></g><path id="c-14" data-name="c" class="cls-4" d="M1826,1160.46a6.16,6.16,0,0,1,1.75-.76,2.61,2.61,0,0,1-.19-.27c-3.64-5.47-3.39-12,.54-14.62a6.21,6.21,0,0,1,2.09-.88c-1-4-.1-7.92,2.7-9.78a6.69,6.69,0,0,1,3.77-1.05c-1.29-4-.27-8.16,2.87-10.24,3.93-2.6,9.63-.93,12.72,3.75s2.43,10.57-1.5,13.17a7.3,7.3,0,0,1-3.25,1.17c2.61,5.1,2.09,10.67-1.47,13a6.4,6.4,0,0,1-2.09.87c1,4.06.1,7.93-2.7,9.79a6.52,6.52,0,0,1-3.48,1c1.3,3.48.48,7.24-2.28,9.07-3.32,2.19-8.13.78-10.75-3.17S1822.68,1162.66,1826,1160.46Z"/><path class="cls-4" d="M1646.64,1148.66l13.3-7.71s3.69-18.86,25-19.32c-2.44,7.92-6,19.32-6,19.32s10.51,8.16,35.44-5.81c24.38-5.47,14,12.3,22,13.57,11.92,1.88-8.69,25.3-33,28.89-31.49,4.64-35.22-1.81-35.22-1.81l-17.82,6.23Z"/><path id="c-15" data-name="c" class="cls-5" d="M1510.64,1170.6c44.45-3.11,133.22-26.85,133.22-26.85,12.13,18.61,8.78,43.33,8.78,43.33-69,60.52-172.92,80.08-204.8,65.52-29.1-13.3-8.43-190.5,64.64-231.08Z"/></g><path class="cls-3" d="M1745.51,1070.29c-2.51,6.31-9,9.66-14.46,7.47s-7.85-9.06-5.33-15.37,9-9.65,14.45-7.47S1748,1064,1745.51,1070.29Z"/><path class="cls-3" d="M1764.14,1068.15c-1.51,3.77-5.37,5.76-8.63,4.46s-4.69-5.41-3.18-9.17,5.36-5.76,8.62-4.46S1765.64,1064.39,1764.14,1068.15Z"/></g><path class="cls-4" d="M1861.71,1028.63c15.14-15.28,5.21-31,5.21-31,8.31-1.78,52.16,64.64,71.06,106.85,33-33.24,91.1-78.12,106.81-80.74,0,0,21.2-5.7,28.82,19.93,6.8,22.88-19.72,39.09-19.72,39.09s-113.43,80.08-130.21,73C1897.58,1144.69,1874,1049.38,1861.71,1028.63Z"/><path class="cls-4" d="M1838,1026.74c9.26.57,21.42-4,25,4.29l17.55-8.91,1.1-11c-15.69-25.15-54-32.29-57.74-32.62-9.85-.87-14.42-1.88-15.18-.57s-3.18,10.08,11.1,11.8c17.92,2.15,6,16.48-30.34,2.84-9.1-3.42-26.24,1-20,7.67C1776.29,1007.56,1795.91,1024.18,1838,1026.74Z"/><path class="cls-12" d="M2115.16,818.12c24.66-25.25,74.79-29.14,84.05,7.56s8.33,61.55,54.2,53.07c36.52-6.76,76.31,24,79.37,76,3.91,66.43-43.65,43.29-31,75.48s21.44,65.06-26,69-86.65-33.71-84.28-88-31-32.47-42.67-58.59C2132.25,915.38,2115.16,818.12,2115.16,818.12Z"/><path class="cls-4" d="M2000.11,1823.43l-21.39-84.24,53.07-7.31c1.82,39.84,4.8,79.07,4.54,89.69Z"/><path class="cls-4" d="M2126.73,1731.4h55.41c-1.83,13.28-9.09,85.17-9.09,85.17-4.68,10.63-46,8.2-46,2.23C2130.2,1805.85,2127,1733.06,2126.73,1731.4Z"/><path class="cls-15" d="M2036.13,1764.32l-54.64,8.07-37.89-226.57c7.81-86,83.5-268.92,83.5-268.92l85.32,29.88,2.08,80.68-102.74,174C2025.15,1595.06,2034.31,1703.84,2036.13,1764.32Z"/><path class="cls-6" d="M2078.37,1283c.78-5.31,1-7,5.46-9.62l81.94-23.24,19.51,19.25c18.47,67.06,7,160.35-7.55,234.39,21.33,64.07,13,196.16,4.41,258.24h-58.27c-3.38-41.49-2.32-118.47-2.58-155.66h0c-7.55-29.88-14.83-61.75-21.33-95.28-8.33-42.83-18.73-84.32-21.59-123.17C2075.76,1351,2075,1311.51,2078.37,1283Z"/><path class="cls-4" d="M2162.45,913.53c.31,44.54-27.8,80.84-62.78,81.08s-63.58-35.66-63.89-80.19,27.79-80.84,62.77-81.08S2162.14,869,2162.45,913.53Z"/><path class="cls-4" d="M2141,957.84l-50.87,28.88s-4.51,20.6-6.77,27.28c-4.65,13.79,13.17,19.82,28.23,11.23a102.5,102.5,0,0,0,24.8-20.06Z"/><path class="cls-13" d="M2034,905.7c12.13-1.11,79.62-18.54,87.43-30.73-.64,29,43,62,48.85,53.51,20.43-53.55,5.54-99.4-54.38-111.36C2033.74,800.73,2034,905.7,2034,905.7Z"/><path d="M2110.77,928.36a7,7,0,1,1-2.21-9.67A7,7,0,0,1,2110.77,928.36Z"/><path d="M2061.73,927.7a6.59,6.59,0,1,1-2.07-9.08A6.57,6.57,0,0,1,2061.73,927.7Z"/><path class="cls-13" d="M2043.6,913.79a2.37,2.37,0,0,1-.68-.47,2.93,2.93,0,0,1,0-3.93c7.92-9.06,17.64-6.43,18-6.31a2.6,2.6,0,0,1,1.6,3.39,2.79,2.79,0,0,1-3.29,2,13,13,0,0,0-12.73,4.54A2.58,2.58,0,0,1,2043.6,913.79Z"/><path class="cls-13" d="M2117.59,915.09a2.45,2.45,0,0,0,.69-.48,2.94,2.94,0,0,0,0-3.93c-7.92-9-17.65-6.42-18.06-6.31a2.61,2.61,0,0,0-1.59,3.4,2.78,2.78,0,0,0,3.28,2,13,13,0,0,1,12.73,4.55A2.58,2.58,0,0,0,2117.59,915.09Z"/><path class="cls-8" d="M2066.72,932.45c-2.06,4.32-3.69,8.62-6.07,11.54a2.42,2.42,0,0,0,.28,3.3c3.91,3.49,12.23,4.64,17.22,5a.64.64,0,0,0,.3-1.23c-5.72-2.37-8.57-4.58-9.9-5.87a2.87,2.87,0,0,1-.83-2.47c.3-2.09.87-6.34,1.06-9.76A1.08,1.08,0,0,0,2066.72,932.45Z"/><path class="cls-4" d="M2145.94,931.24c-7.3,7.51-8.24,18.44-2.1,24.42s17,4.74,24.34-2.77,8.25-18.44,2.11-24.41S2153.25,923.74,2145.94,931.24Z"/><path class="cls-8" d="M2150.85,949.47a2.41,2.41,0,0,1-.74-.75c-2.74-4.52-2.57-9.27.46-12.71a11,11,0,0,1,12.44-2.94,2.29,2.29,0,0,1-1.86,4.19A6.53,6.53,0,0,0,2154,939c-1.69,1.92-1.68,4.51,0,7.31a2.29,2.29,0,0,1-3.18,3.13Z"/><path class="cls-19" d="M2023.86,1283c88.88,34.17,166.38,8.92,166.38,8.92-.27-11.82,1.41-49.08-16.57-89.83,4.36-34.51,2.69-86.37,4.06-106.26-10.59-53.37-5.56-57.89,4-83l-33.26-9.82-59.86,21.11-4.45-14.44s-37.36,11.33-45.26,15.69l-14.35,56.86,3.07,125.74S2027.48,1275.29,2023.86,1283Z"/><path class="cls-8" d="M2082.71,975.51a23.31,23.31,0,0,0,4.42,0c10.9-1,17.77-9.38,18.06-9.73a2.56,2.56,0,1,0-4-3.23h0c-.06.07-5.88,7.08-14.6,7.86-5.69.5-11.46-1.72-17.18-6.62a2.56,2.56,0,1,0-3.33,3.89C2071.51,972.34,2077.08,975,2082.71,975.51Z"/><path class="cls-13" d="M2013,1822.07c-5.55-14.57-17.42-16.2-17.42-16.2-23,30.76-79.68,11.89-77.81,53.49,86.12-.53,121.9,0,121.9,0-.11-9.55-1.81-32.23-3.8-41.11l-4.48.8Z"/><path class="cls-9" d="M1922.77,1858.21h111.89a5,5,0,0,1,5,5v7.22a0,0,0,0,1,0,0H1917.75a0,0,0,0,1,0,0v-7.22A5,5,0,0,1,1922.77,1858.21Z" transform="translate(3957.44 3728.68) rotate(180)"/><path class="cls-13" d="M2117.21,1859.76s6.91-25.79,7.52-29.1c.69-3.77,2.72-12.68,3.14-17.24.1-1.13,12-8.39,21-8.37,12.28,0,23.47,7.13,23.7,8.47,1.45,8.61,1.49,18.73,3.84,27.11,1.74,6.23,6.49,20.76,6.49,20.76Z"/><path class="cls-9" d="M2117.21,1857.76c1.61,5.12,21.49-.79,36-.78,12.18,0,27.94,4.72,29.73,2.88,3,5.38.53,16.53.53,16.53s-12.69.65-27.91,0-32.81.31-39.43-1.66C2111.93,1867.74,2117.21,1857.76,2117.21,1857.76Z"/><path class="cls-12" d="M2152.5,1004.16c-12.85,20.6-40.07,77.57-37.34,152.06s21.38,165,12.78,248c43.77,3.89,85.54-1.73,85.54-1.73-4.66-49-31.76-389.67-31.76-389.67Z"/><g id="c-16" data-name="c"><path class="cls-4" d="M2219.82,1215.85l-8.1,3.24s-6-13.75-14.54-13.32l1.1,13.61s-4.15,14.53-30.1,12.82c-22.16,5-6.65,15.56-12.79,19.77-9,6.21,16.34,21.46,37.73,14.88,27.68-8.51,45.67-34.65,45.67-34.65Z"/></g><path class="cls-4" d="M2181.72,1012.79s78.05,34.63,121.67,125.29c-25.47,35.86-52.95,14.53-52.95,14.53l-72.71-56.79s-17.38-24.11-13.5-51.12C2168,1018.51,2181.72,1012.79,2181.72,1012.79Z"/><path class="cls-4" d="M2218.51,1216.37l36.56-64.44s6.32-28.92,48.32-13.85c2,22.58,9.19,46.09-65.71,95.63A216.56,216.56,0,0,1,2218.51,1216.37Z"/><path class="cls-18" d="M2136.9,996.31l23.45,10c-2.47,28.17-65.49,45-65.49,45l-6.26-27.19Z"/><path class="cls-12" d="M2065.21,1013.84c-11.53,36.81-28.91,88.17-24.17,143.27s10.46,144-17.18,238c-20.54,4-48.51,1-48.51,1s40.46-138,38.67-199.4c-2-68.1,1.13-129.37,17.87-168.35C2044.48,1022.91,2065.21,1013.84,2065.21,1013.84Z"/><path class="cls-18" d="M2088.6,1024.08,2070,1044.7s-16-16.6-10.24-26.85,26.5-17.18,26.5-17.18Z"/><path class="cls-9" d="M1540.81,1499c-8.53,0-17.13-.23-25.57-.69a7,7,0,1,1,.76-14c9.75.53,19.69.75,29.54.64h.08a7,7,0,0,1,.07,14Zm34.78-1.3a7,7,0,0,1-.52-14c9.94-.74,19.81-1.82,29.34-3.2a7,7,0,0,1,2,13.85c-9.85,1.43-20,2.54-30.3,3.31A4.78,4.78,0,0,1,1575.59,1497.69Zm375.92-1.79h-.26a104.94,104.94,0,0,1-31.48-5.86,7,7,0,1,1,4.71-13.18,90.87,90.87,0,0,0,27.28,5.05,7,7,0,0,1-.25,14Zm-465.77-.23a6.47,6.47,0,0,1-.87-.06c-10.36-1.28-20.51-2.93-30.15-4.91a7,7,0,0,1,2.81-13.71c9.28,1.9,19.06,3.49,29.06,4.73a7,7,0,0,1-.85,14Zm495.53-2.84a7,7,0,0,1-1.7-13.8,79.6,79.6,0,0,0,25.2-10.87,7,7,0,1,1,7.8,11.62,93.5,93.5,0,0,1-29.6,12.84A7.13,7.13,0,0,1,1981.27,1492.83ZM1634.91,1489a7,7,0,0,1-1.54-13.83c9.9-2.25,19.41-4.87,28.26-7.81a7,7,0,0,1,4.41,13.29c-9.28,3.08-19.23,5.82-29.57,8.17A6.92,6.92,0,0,1,1634.91,1489Zm-207.85-5.56a7.14,7.14,0,0,1-2.08-.31,227.79,227.79,0,0,1-28.9-11.06,7,7,0,0,1,6-12.68,211.2,211.2,0,0,0,27.1,10.37,7,7,0,0,1-2.07,13.68Zm469.56-8.35a7,7,0,0,1-4.86-2,61,61,0,0,1-16.9-28.79,7,7,0,0,1,13.55-3.54,47.17,47.17,0,0,0,13.07,22.26,7,7,0,0,1-4.86,12Zm-204.95-5.23a7,7,0,0,1-3-13.31,152.65,152.65,0,0,0,24.61-14.64,7,7,0,0,1,8.34,11.25,167,167,0,0,1-26.87,16A7,7,0,0,1,1691.67,1469.86Zm337.09-10.72a7,7,0,0,1-6.19-10.25,47.91,47.91,0,0,0,5.33-22.47c0-1,0-1.94-.07-2.91a7,7,0,1,1,14-.71c.06,1.21.09,2.43.09,3.62a61.82,61.82,0,0,1-6.93,29A7,7,0,0,1,2028.76,1459.14Zm-655.42-1.75a7,7,0,0,1-4.27-1.45c-2.49-1.92-4.86-3.91-7-5.93-5-4.57-10.48-9.77-15.7-14.7a7,7,0,1,1,9.61-10.18c5.19,4.9,10.67,10.06,15.58,14.59,1.88,1.74,3.94,3.46,6.1,5.13a7,7,0,0,1-4.27,12.54Zm365.45-23.72a7,7,0,0,1-5.6-11.19q.75-1,1.47-2a132.53,132.53,0,0,1,19-21.54,7,7,0,1,1,9.5,10.29,119,119,0,0,0-17,19.24c-.56.82-1.15,1.63-1.75,2.43A7,7,0,0,1,1738.79,1433.67ZM1881,1419.79c-.24,0-.49,0-.74,0a7,7,0,0,1-6.23-7.69,177,177,0,0,1,5.9-30.56,7,7,0,1,1,13.46,3.87,163.15,163.15,0,0,0-5.44,28.15A7,7,0,0,1,1881,1419.79Zm-551.79-3.14a7,7,0,0,1-4.77-1.88c-8-7.4-15.18-14-22.07-20.13a7,7,0,1,1,9.31-10.45c7,6.21,14.26,12.86,22.3,20.33a7,7,0,0,1-4.77,12.13Zm698.22-15.38a7,7,0,0,1-6.31-4,63.8,63.8,0,0,0-16.52-21.14,7,7,0,0,1,9-10.69,77.83,77.83,0,0,1,20.1,25.76,7,7,0,0,1-6.31,10Zm-245.3-8.47a7,7,0,0,1-3.8-12.89,234,234,0,0,1,27.07-14.93,7,7,0,1,1,6,12.67,218.17,218.17,0,0,0-25.44,14A7.05,7.05,0,0,1,1782.16,1392.8Zm-497.83-16a7,7,0,0,1-4.48-1.63c-7.85-6.57-15.65-12.84-23.18-18.64a7,7,0,0,1,8.55-11.09c7.67,5.92,15.62,12.31,23.61,19a7,7,0,0,1-4.5,12.37Zm551.91-9.65a7,7,0,0,1-2.25-13.63,292.75,292.75,0,0,1,29.59-8.33,7,7,0,0,1,3.08,13.66,276.62,276.62,0,0,0-28.17,7.93A7,7,0,0,1,1836.24,1367.13Zm147.16-4.42a7,7,0,0,1-2.6-.5,132.26,132.26,0,0,0-27.44-7.45,7,7,0,0,1,2.29-13.82,146,146,0,0,1,30.35,8.27,7,7,0,0,1-2.6,13.5Zm-85.82-.12a7,7,0,0,1-6.49-9.61,7,7,0,0,1,2.81-13c1.56-.18,3.11-.34,4.66-.49q4.29-6.94,9.26-13.54a7,7,0,1,1,11.18,8.43c-1,1.32-2,2.67-2.94,4q4.37-.12,8.65-.08a7,7,0,0,1-.07,14h-.07q-8.64-.09-17.62.53c-1.09,1.93-2.12,3.88-3.11,5.85A7,7,0,0,1,1897.58,1362.59Zm-660.83-22.37a7,7,0,0,1-4-1.25c-8.34-5.81-16.68-11.25-24.78-16.19a7,7,0,0,1,7.29-12c8.34,5.08,16.91,10.68,25.48,16.64a7,7,0,0,1-4,12.75Zm696.58-25.36a7,7,0,0,1-4.84-12,226.48,226.48,0,0,1,23.74-19.79,7,7,0,0,1,8.24,11.32,213.57,213.57,0,0,0-22.29,18.57A7,7,0,0,1,1933.33,1314.86Zm-747.89-5.76a7,7,0,0,1-3.18-.77c-9-4.6-18-8.72-26.69-12.25a7,7,0,1,1,5.23-13c9.12,3.68,18.49,8,27.84,12.77a7,7,0,0,1-3.2,13.23Zm-200.67-6.67a7,7,0,0,1-3.45-13.09,196.07,196.07,0,0,1,28.15-13.14,7,7,0,1,1,4.88,13.12,182.54,182.54,0,0,0-26.14,12.21A7,7,0,0,1,984.77,1302.43Zm145-15.56a6.89,6.89,0,0,1-1.89-.26,218.7,218.7,0,0,0-28.41-6,7,7,0,1,1,2-13.86,232.69,232.69,0,0,1,30.23,6.38,7,7,0,0,1-1.88,13.74Zm1337.59-3a7,7,0,0,1-6.42-4.21c-2.68-6.12-8.7-12.22-17.9-18.13a7,7,0,1,1,7.56-11.78c11.57,7.42,19.37,15.61,23.17,24.31a7,7,0,0,1-3.62,9.22A6.93,6.93,0,0,1,2467.39,1283.91Zm-1426.62-2.17a7,7,0,0,1-1.28-13.88,184.42,184.42,0,0,1,31-3.09,7,7,0,0,1,.21,14,169,169,0,0,0-28.62,2.85A7.23,7.23,0,0,1,1040.77,1281.74Zm940.81-2.26a7,7,0,0,1-3.46-13.09c8.58-4.87,17.78-9.52,27.34-13.83a7,7,0,1,1,5.75,12.76c-9.16,4.13-18,8.59-26.18,13.25A7,7,0,0,1,1981.58,1279.48Zm54.58-24.75a7,7,0,0,1-2.36-13.59c9.28-3.33,19-6.47,29-9.32a7,7,0,0,1,3.85,13.46c-9.67,2.76-19.14,5.8-28.13,9A7,7,0,0,1,2036.16,1254.73Zm383.81-5.28a6.84,6.84,0,0,1-2.53-.48,279.3,279.3,0,0,0-27.83-9,7,7,0,1,1,3.64-13.51,289.73,289.73,0,0,1,29.25,9.46,7,7,0,0,1-2.53,13.53Zm-326.16-11.29a7,7,0,0,1-1.52-13.84c9.65-2.16,19.68-4.14,29.8-5.87a7,7,0,0,1,2.36,13.8c-9.89,1.69-19.67,3.62-29.1,5.73A6.75,6.75,0,0,1,2093.81,1238.16Zm268.38-4.66a6.83,6.83,0,0,1-1.34-.13c-9.33-1.8-19.16-3.41-29.22-4.78a7,7,0,1,1,1.88-13.87c10.32,1.4,20.42,3,30,4.91a7,7,0,0,1-1.32,13.87ZM2153,1228a7,7,0,0,1-.85-14c9.9-1.22,20-2.25,30.17-3a7,7,0,0,1,1.11,14c-9.92.78-19.87,1.79-29.57,3A6.22,6.22,0,0,1,2153,1228Zm149.79-2.65c-.2,0-.41,0-.61,0-9.72-.85-19.69-1.5-29.65-1.93a7,7,0,0,1,.61-14c10.16.44,20.34,1.11,30.25,2a7,7,0,0,1-.6,14Zm-90-2.13a7,7,0,0,1-.26-14c9.37-.36,18.88-.54,28.28-.54h2a7,7,0,0,1,0,14h-2c-9.22,0-18.56.18-27.75.53Z"/><path class="cls-23" d="M1043.72,1081.91H863.66a20.25,20.25,0,0,0-20.25,20.25v101a20.25,20.25,0,0,0,20.25,20.24h5.87l20.87,39.31a7.45,7.45,0,0,0,13,.38l24.12-39.69h116.25a20.24,20.24,0,0,0,20.25-20.24v-101A20.25,20.25,0,0,0,1043.72,1081.91Z"/><path class="cls-23" d="M949.89,1059.3h0a11.84,11.84,0,0,1-11.84-11.84v-36a11.84,11.84,0,0,1,11.84-11.84h0a11.84,11.84,0,0,1,11.84,11.84v36A11.84,11.84,0,0,1,949.89,1059.3Z"/><path class="cls-23" d="M992.81,1055.83h0a11.82,11.82,0,0,1,0-16.74l25.46-25.47a11.84,11.84,0,0,1,16.74,0h0a11.84,11.84,0,0,1,0,16.75l-25.46,25.46A11.82,11.82,0,0,1,992.81,1055.83Z"/><path class="cls-23" d="M907,1055.83h0a11.82,11.82,0,0,0,0-16.74l-25.46-25.47a11.85,11.85,0,0,0-16.75,0h0a11.85,11.85,0,0,0,0,16.75l25.47,25.46A11.82,11.82,0,0,0,907,1055.83Z"/><path class="cls-9" d="M1032.8,1073.36H852.74a20.25,20.25,0,0,0-20.25,20.25v101a20.24,20.24,0,0,0,20.25,20.25h5.87l20.86,39.31a7.46,7.46,0,0,0,13,.38l24.12-39.69H1032.8a20.25,20.25,0,0,0,20.25-20.25v-101A20.25,20.25,0,0,0,1032.8,1073.36Z"/><path class="cls-15" d="M1017.4,1105l.05,78.94a5.42,5.42,0,0,1-5.43,5.44l-137.18.09a5.45,5.45,0,0,1-5.45-5.43l0-78.94a5.45,5.45,0,0,1,5.44-5.45l137.18-.09A5.44,5.44,0,0,1,1017.4,1105Z"/><path class="cls-6" d="M1017.4,1105v4.37l-62.47,44.93a17.35,17.35,0,0,1-20.53.19l-65.06-46.9v-2.49a5.45,5.45,0,0,1,5.44-5.45l137.17-.09A5.45,5.45,0,0,1,1017.4,1105Z"/><path class="cls-9" d="M941.85,1051.81h0A11.84,11.84,0,0,1,930,1040v-36a11.84,11.84,0,0,1,11.84-11.84h0A11.84,11.84,0,0,1,953.69,1004v36A11.84,11.84,0,0,1,941.85,1051.81Z"/><path class="cls-9" d="M984.76,1048.34h0a11.85,11.85,0,0,1,0-16.75l25.46-25.46a11.85,11.85,0,0,1,16.75,0h0a11.84,11.84,0,0,1,0,16.75l-25.46,25.46A11.85,11.85,0,0,1,984.76,1048.34Z"/><path class="cls-9" d="M898.94,1048.34h0a11.85,11.85,0,0,0,0-16.75l-25.46-25.46a11.85,11.85,0,0,0-16.75,0h0a11.85,11.85,0,0,0,0,16.75l25.46,25.46A11.85,11.85,0,0,0,898.94,1048.34Z"/><path class="cls-24" d="M1023.3,579.54h256a54.7,54.7,0,0,1,54.7,54.7v103a54.7,54.7,0,0,1-54.7,54.7h-176.6l6.2,115c.48,8.82-11.59,11.79-15.27,3.76l-54.42-118.74h-16a54.7,54.7,0,0,1-54.7-54.7v-103A54.7,54.7,0,0,1,1023.3,579.54Z"/><path class="cls-1" d="M1015.88,647.7h266.17a18.71,18.71,0,0,0,18.71-18.7h0a18.71,18.71,0,0,0-18.71-18.71H1015.88A18.71,18.71,0,0,0,997.18,629h0A18.7,18.7,0,0,0,1015.88,647.7Z"/><path class="cls-1" d="M1015.88,703.14h266.17a18.71,18.71,0,0,0,18.71-18.7h0a18.71,18.71,0,0,0-18.71-18.71H1015.88a18.71,18.71,0,0,0-18.7,18.71h0A18.7,18.7,0,0,0,1015.88,703.14Z"/><rect class="cls-1" x="1085.45" y="721.17" width="215.31" height="37.41" rx="15.75" transform="translate(2386.21 1479.75) rotate(180)"/><rect class="cls-9" x="2526.17" y="565.45" width="243.11" height="134.71" rx="27.01"/><rect class="cls-9" x="2346.88" y="758.58" width="315.62" height="174.88" rx="35.06"/><polygon class="cls-9" points="2564.74 700.16 2564.74 770.19 2608.36 700.16 2564.74 700.16"/><path class="cls-9" d="M2617.8,925.63v65.1a5,5,0,0,1-9.39,2.25l-34.22-67.35Z"/><path class="cls-1" d="M2729.92,620.12H2565.54a14.43,14.43,0,0,1-14.42-14.42h0a14.43,14.43,0,0,1,14.42-14.42h164.38a14.43,14.43,0,0,1,14.42,14.42h0A14.43,14.43,0,0,1,2729.92,620.12Z"/><rect class="cls-1" x="2551.12" y="637.85" width="193.22" height="28.84" rx="14.42"/><path class="cls-1" d="M2621.34,813.24H2391a16,16,0,0,1-16.05-16h0a16,16,0,0,1,16.05-16h230.34a16,16,0,0,1,16,16h0A16,16,0,0,1,2621.34,813.24Z"/><path class="cls-1" d="M2621.34,864.12H2391a16,16,0,0,1-16.05-16h0A16,16,0,0,1,2391,832h230.34a16,16,0,0,1,16,16h0A16,16,0,0,1,2621.34,864.12Z"/><path class="cls-1" d="M2475.88,882.92H2623.7a13.68,13.68,0,0,1,13.68,13.68v4.71A13.68,13.68,0,0,1,2623.7,915H2475.88a13.69,13.69,0,0,1-13.69-13.69v-4.71A13.69,13.69,0,0,1,2475.88,882.92Z"/><path class="cls-9" d="M471.31,820.33h-.37a7,7,0,0,1-6.62-7.36,144.52,144.52,0,0,1,5.46-31.15,7,7,0,1,1,13.46,3.85,129.85,129.85,0,0,0-4.94,28A7,7,0,0,1,471.31,820.33Zm16.39-57.39a7,7,0,0,1-6.17-10.3,135.93,135.93,0,0,1,18-25.95A7,7,0,1,1,510,736a121.75,121.75,0,0,0-16.11,23.26A7,7,0,0,1,487.7,762.94Zm39.4-44.46a7,7,0,0,1-4-12.75,145.16,145.16,0,0,1,27.63-14.94,7,7,0,0,1,5.32,13,130.25,130.25,0,0,0-25,13.49A7,7,0,0,1,527.1,718.48Zm54.88-23a7,7,0,0,1-1.46-13.84,221.12,221.12,0,0,1,30.61-4.27,7,7,0,1,1,1,14,210.43,210.43,0,0,0-28.68,4A6.69,6.69,0,0,1,582,695.51Zm82.46-3.63c-4.35,0-8.84-.16-13.33-.46-3.29-.22-6.58-.39-9.79-.51a7,7,0,0,1,.51-14c3.35.12,6.78.3,10.22.53a180.1,180.1,0,0,0,19.22.29,7,7,0,0,1,.56,14C669.41,691.83,666.92,691.88,664.44,691.88Zm36.74-4.22a7,7,0,0,1-1.66-13.8,114.83,114.83,0,0,0,26.35-10,7,7,0,1,1,6.56,12.37,128.72,128.72,0,0,1-29.57,11.18A6.9,6.9,0,0,1,701.18,687.66Zm52.27-28a7,7,0,0,1-4.81-12.09,111.45,111.45,0,0,0,17.81-21.78,7,7,0,1,1,11.85,7.45,125.21,125.21,0,0,1-20,24.52A7,7,0,0,1,753.45,659.68Zm31.94-50.1a7,7,0,0,1-6.59-9.37,156.22,156.22,0,0,0,7.08-27.79,7,7,0,1,1,13.82,2.23A169.8,169.8,0,0,1,792,604.93,7,7,0,0,1,785.39,609.58Zm931.12-11.3a7,7,0,0,1-6-3.39c-5-8.31-10.44-16.59-16.16-24.62a7,7,0,1,1,11.4-8.12c5.93,8.31,11.57,16.9,16.75,25.52a7,7,0,0,1-6,10.61ZM742.86,551.91h-.41a202.38,202.38,0,0,1-30.78-4,7,7,0,1,1,2.94-13.69,188.3,188.3,0,0,0,28.64,3.76,7,7,0,0,1-.39,14Zm30-.09a7,7,0,0,1-.4-14c5-.28,10.18-.71,15.47-1.27a180.55,180.55,0,0,0-2.28-21.63,7,7,0,1,1,13.81-2.31,192.26,192.26,0,0,1,2.4,22.19,7,7,0,0,1,1.84,13.87l-4.48.63a7,7,0,0,1-4.08,1.33,7,7,0,0,1-2.65-.5c-6.59.75-13,1.31-19.23,1.67Zm908.92-2.36a7,7,0,0,1-5.39-2.53c-6.21-7.47-12.82-14.87-19.65-22a7,7,0,0,1,10.11-9.69c7.06,7.37,13.89,15,20.31,22.74a7,7,0,0,1-5.38,11.48Zm-849.56-6a7,7,0,0,1-1.45-13.85c9.23-2,18.93-4.28,28.83-6.92a7,7,0,1,1,3.6,13.53c-10.13,2.7-20.06,5.08-29.52,7.08A6.66,6.66,0,0,1,832.19,543.46Zm-147.6-4.52a7,7,0,0,1-2.8-.59A134.77,134.77,0,0,1,659,525.64q-2.24-1.54-4.35-3.08a7,7,0,1,1,8.2-11.35q2,1.45,4.13,2.93a120,120,0,0,0,20.44,11.38,7,7,0,0,1-2.81,13.42Zm205.61-10.8a7,7,0,0,1-2.07-13.69c9.09-2.81,18.61-5.94,28.3-9.28A7,7,0,1,1,921,518.4c-9.83,3.39-19.49,6.56-28.73,9.42A6.77,6.77,0,0,1,890.2,528.14ZM947,508.6a7,7,0,0,1-2.46-13.55c8.94-3.35,18.31-7,27.85-10.79a7,7,0,1,1,5.19,13c-9.63,3.85-19.09,7.51-28.12,10.9A7.06,7.06,0,0,1,947,508.6Zm693.34-2.45a7,7,0,0,1-4.71-1.83c-7.2-6.56-14.76-13-22.47-19.18a7,7,0,0,1,8.74-10.94c7.94,6.36,15.74,13,23.16,19.77a7,7,0,0,1-4.72,12.18ZM635.68,504.73a7,7,0,0,1-4.91-2c-8.82-8.66-15.39-17.26-19.52-25.55a7,7,0,1,1,12.52-6.26c3.45,6.91,9.1,14.25,16.82,21.83a7,7,0,0,1-4.91,12Zm149.36-13a7,7,0,0,1-6.59-4.63,124.19,124.19,0,0,0-12.39-25.49,7,7,0,1,1,11.76-7.6,137.85,137.85,0,0,1,13.81,28.36,7,7,0,0,1-6.59,9.36Zm217.67-5.36a7,7,0,0,1-2.7-13.46c8.75-3.66,18-7.61,27.52-11.74A7,7,0,1,1,1033.1,474c-9.56,4.15-18.88,8.13-27.69,11.81A6.94,6.94,0,0,1,1002.71,486.4Zm590.75-17.71a6.93,6.93,0,0,1-4-1.27c-8-5.61-16.32-11.07-24.72-16.23a7,7,0,0,1,7.32-11.93c8.64,5.3,17.2,10.92,25.44,16.7a7,7,0,0,1-4,12.73Zm-535.67-6.16a7,7,0,0,1-2.86-13.4c8.55-3.81,17.49-7.83,27.33-12.3a7,7,0,0,1,5.79,12.74c-9.88,4.49-18.84,8.52-27.41,12.35A7.06,7.06,0,0,1,1057.79,462.53Zm-442.7-10.39a7,7,0,0,1-6.44-9.74c4.13-9.7,12.8-17.81,25.07-23.47a7,7,0,0,1,5.86,12.72c-9.06,4.18-15.3,9.79-18.05,16.24A7,7,0,0,1,615.09,452.14ZM752,442.66a7,7,0,0,1-4.25-1.44,55.19,55.19,0,0,0-15.34-8.39c-3.06-1.07-6.19-2.05-9.32-2.93a7,7,0,1,1,3.8-13.48c3.4,1,6.8,2,10.12,3.19a69.11,69.11,0,0,1,19.25,10.49A7,7,0,0,1,752,442.66Zm360.49-4.93a7,7,0,0,1-2.92-13.36l18.72-8.6,8.55-3.93a7,7,0,0,1,5.85,12.72l-8.55,3.93-18.73,8.6A6.91,6.91,0,0,1,1112.45,437.73Zm429.91-.42a7,7,0,0,1-3.29-.83c-8.65-4.63-17.57-9.05-26.5-13.17a7,7,0,1,1,5.86-12.71c9.18,4.22,18.34,8.78,27.24,13.53a7,7,0,0,1-3.31,13.18ZM665.55,424.74a7,7,0,0,1-.77-14,152.88,152.88,0,0,1,31.39-.12,7,7,0,0,1-1.33,13.93,138.91,138.91,0,0,0-28.5.11A7,7,0,0,1,665.55,424.74Zm501.46-12a7,7,0,0,1-2.91-13.37l9.42-4.29c6-2.74,12.31-5.33,18.59-7.71a7,7,0,1,1,4.94,13.1c-6,2.27-12,4.74-17.75,7.36l-9.39,4.28A7.12,7.12,0,0,1,1167,412.7Zm320.88-.48a6.85,6.85,0,0,1-2.54-.48c-9.17-3.58-18.55-6.92-27.87-9.93a7,7,0,1,1,4.31-13.32c9.58,3.09,19.22,6.53,28.65,10.21a7,7,0,0,1-2.55,13.52Zm-57.07-18.42a7.47,7.47,0,0,1-1.74-.22c-9.57-2.46-19.27-4.64-28.85-6.46a7,7,0,0,1,2.63-13.76c9.86,1.89,19.86,4.13,29.7,6.65a7,7,0,0,1-1.74,13.79Zm-207.71-2.15a7,7,0,0,1-1.84-13.75c9.7-2.65,19.75-4.91,29.87-6.73a7,7,0,0,1,2.47,13.78c-9.72,1.75-19.36,3.92-28.65,6.45A7,7,0,0,1,1223.11,391.65Zm148.81-9.08a8.46,8.46,0,0,1-.87-.05c-9.81-1.22-19.7-2.11-29.4-2.64a7,7,0,0,1,.76-14c10,.55,20.24,1.47,30.36,2.72a7,7,0,0,1-.85,13.95ZM1282.08,381a7,7,0,0,1-.65-14c10-.95,20.24-1.53,30.48-1.71a7,7,0,1,1,.25,14c-9.88.18-19.78.73-29.41,1.65C1282.53,381,1282.3,381,1282.08,381Z"/><polygon class="cls-25" points="1722.48 550.09 1699.81 587.22 1894.95 720.35 1722.48 550.09"/><polygon class="cls-25" points="1679.69 631.77 1691.5 674.35 1886.27 714.21 1679.69 631.77"/><polygon class="cls-9" points="1894.95 720.35 1565.87 608.18 1679.69 568.16 1894.95 720.35"/><polygon class="cls-9" points="1722.48 550.09 1894.95 720.35 1794.01 519.89 1722.48 550.09"/><path class="cls-9" d="M2890.3,287.15a7,7,0,0,1,0-14,112.66,112.66,0,0,0,28-3.31,7,7,0,0,1,3.5,13.56,126.88,126.88,0,0,1-31.45,3.75Zm-29.84-2.67a6.8,6.8,0,0,1-1.18-.1,261.9,261.9,0,0,1-30-7,7,7,0,0,1,3.94-13.43,251.41,251.41,0,0,0,28.4,6.64,7,7,0,0,1-1.16,13.9Zm86.82-13a7,7,0,0,1-3.94-12.79A75.75,75.75,0,0,0,2960.93,242a7,7,0,1,1,11.12,8.5,89.73,89.73,0,0,1-20.84,19.82A6.94,6.94,0,0,1,2947.28,271.5Zm-484-1.55a7,7,0,0,1-5.7-11.07,203.86,203.86,0,0,1,20-23.75,7,7,0,0,1,10,9.78A189.37,189.37,0,0,0,2469,267,7,7,0,0,1,2463.32,270Zm339.55-2a6.93,6.93,0,0,1-2.54-.48c-9.11-3.55-18.53-7.61-28-12.07a7,7,0,1,1,6-12.67c9.17,4.33,18.3,8.26,27.11,11.7a7,7,0,0,1-2.55,13.52Zm-54.31-25.47a6.94,6.94,0,0,1-3.34-.85c-8.75-4.75-17.59-9.86-26.29-15.19a7,7,0,1,1,7.31-11.94c8.49,5.2,17.13,10.19,25.67,14.83a7,7,0,0,1-3.35,13.15Zm-243.64-15.52a7,7,0,0,1-4.36-12.48,246.66,246.66,0,0,1,25.29-17.68,7,7,0,0,1,7.28,12,232.34,232.34,0,0,0-23.85,16.67A7,7,0,0,1,2504.92,226.93Zm192.46-15.8a6.91,6.91,0,0,1-3.94-1.22c-3.1-2.12-6.2-4.28-9.22-6.43a119.51,119.51,0,0,0-15.25-9.26,7,7,0,1,1,6.34-12.48,134,134,0,0,1,17,10.33c2.95,2.11,6,4.22,9,6.29a7,7,0,0,1-4,12.77Zm-141.27-15.19a7,7,0,0,1-2.77-13.43,184.83,184.83,0,0,1,29.52-9.95,7,7,0,1,1,3.3,13.6,172.25,172.25,0,0,0-27.29,9.2A6.94,6.94,0,0,1,2556.11,195.94Zm87.86-11a6.93,6.93,0,0,1-1.49-.16,115.82,115.82,0,0,0-28.1-2.52,7,7,0,0,1-.43-14,129.71,129.71,0,0,1,31.5,2.83,7,7,0,0,1-1.48,13.84Z"/><polygon class="cls-25" points="2456.56 241.63 2466.66 273.47 2296.72 336.97 2456.56 241.63"/><polygon class="cls-25" points="2473.49 310.39 2456.88 339.98 2304.32 333.99 2473.49 310.39"/><polygon class="cls-9" points="2296.72 336.97 2562.7 313.67 2485.16 262.95 2296.72 336.97"/><polygon class="cls-9" points="2456.56 241.63 2296.72 336.97 2408.76 205.99 2456.56 241.63"/><path class="cls-9" d="M2239,609.15q12.39-9.36,29.76-9.37c25,0,38.21,13.6,38.21,32.7,0,11-5.33,22.23-16.17,33.44-13.78,14.51-23.7,21.67-29.94,21.67a10.35,10.35,0,0,1-10.47-10.47c0-5.14,4.77-10.29,13-17.82a7.74,7.74,0,0,1,1.47-1.28c9.37-8.64,12.31-13.41,12.31-19.29,0-7.35-5-11.39-12.13-11.39a39.31,39.31,0,0,0-11.75,2.2q-6.9,2.21-9.92,2.21a11.46,11.46,0,0,1-11-11.76C2232.38,616.13,2234.59,612.46,2239,609.15Zm25.16,122.53c-11.2,0-18.73-8.45-18.73-18.74,0-8.81,7.53-17.26,18.73-17.26,9.74,0,17.27,8.45,17.27,17.26C2281.43,723.05,2274.27,731.68,2264.16,731.68Z"/><path class="cls-9" d="M1163.11,118.68q9.81-7.41,23.54-7.41c19.76,0,30.23,10.75,30.23,25.86,0,8.72-4.22,17.59-12.79,26.45-10.9,11.48-18.75,17.15-23.69,17.15a8.19,8.19,0,0,1-8.28-8.29c0-4.07,3.78-8.13,10.32-14.09a6.24,6.24,0,0,1,1.16-1c7.41-6.83,9.74-10.61,9.74-15.26,0-5.81-3.93-9-9.59-9a31.21,31.21,0,0,0-9.3,1.75,30,30,0,0,1-7.85,1.74,9.06,9.06,0,0,1-8.72-9.3C1157.88,124.2,1159.62,121.29,1163.11,118.68ZM1183,215.6a14.43,14.43,0,0,1-14.82-14.82c0-7,6-13.66,14.82-13.66a13.93,13.93,0,0,1,13.66,13.66C1196.68,208.77,1191,215.6,1183,215.6Z"/><path class="cls-26" d="M857.18,193.49,798.34,302.34a8.52,8.52,0,0,1-11.55,3.46L597.6,203.54A8.53,8.53,0,0,1,594.16,192L653,83.13a8.52,8.52,0,0,1,11.56-3.45L853.74,181.93A8.53,8.53,0,0,1,857.18,193.49Z"/><path class="cls-9" d="M857.18,193.49l-3.25,6L734.27,214.83a27.2,27.2,0,0,1-28.44-15.06L651.14,86.56,653,83.13a8.53,8.53,0,0,1,11.56-3.45L853.73,181.93A8.52,8.52,0,0,1,857.18,193.49Z"/><path class="cls-9" d="M1990,411.29a54.46,54.46,0,1,1,54.46-54.46A54.52,54.52,0,0,1,1990,411.29Zm0-93.92a39.46,39.46,0,1,0,39.46,39.46A39.5,39.5,0,0,0,1990,317.37Z"/><path class="cls-1" d="M3136,797a54.46,54.46,0,1,1,54.46-54.46A54.52,54.52,0,0,1,3136,797Zm0-93.92a39.46,39.46,0,1,0,39.46,39.46A39.5,39.5,0,0,0,3136,703.11Z"/><path class="cls-9" d="M2112.13,270.16A31.09,31.09,0,1,1,2081,239.07,31.09,31.09,0,0,1,2112.13,270.16Z"/><circle class="cls-1" cx="3138.42" cy="620.12" r="31.09"/><path class="cls-24" d="M100.21,1047.25A44.3,44.3,0,1,1,55.92,1003,44.29,44.29,0,0,1,100.21,1047.25Z"/><path class="cls-9" d="M52.34,1075.19h0a6.53,6.53,0,0,1-5.37-2.88l-18.21-27.16a6.5,6.5,0,1,1,10.79-7.24L52.4,1057.1l21.8-31.82a6.5,6.5,0,1,1,10.73,7.35L57.7,1072.36A6.49,6.49,0,0,1,52.34,1075.19Z"/><path class="cls-24" d="M104.2,1098.17a12.7,12.7,0,1,1-12.7-12.7A12.7,12.7,0,0,1,104.2,1098.17Z"/></g></g></svg>