<svg xmlns="http://www.w3.org/2000/svg" viewBox="0 0 164.93 129.26"><defs><style>.cls-1{isolation:isolate;}.cls-2{fill:#3f232a;}.cls-3{fill:#270c14;}.cls-4{fill:#f4b88e;}.cls-5{fill:#f5dcd6;}.cls-20,.cls-5{mix-blend-mode:multiply;}.cls-6{fill:#f2a57f;}.cls-7{fill:#2f1807;}.cls-8{fill:#fff;}.cls-9{fill:#f37d7f;}.cls-10{fill:#f5a586;}.cls-11{fill:#6a54a1;}.cls-12{fill:#6db9ca;}.cls-13{fill:#eaf6f5;}.cls-14{fill:#001d51;}.cls-15{fill:#e08d61;}.cls-16{fill:#eba17d;}.cls-17{fill:none;stroke:#e89780;stroke-linecap:round;stroke-linejoin:round;}.cls-18{fill:#0d316d;}.cls-19,.cls-20{fill:#ec524f;}.cls-21{fill:#bfe5e5;}.cls-22{fill:#ed1c24;stroke:#000;stroke-miterlimit:10;stroke-width:5px;}</style></defs><g class="cls-1"><g id="Layer_2" data-name="Layer 2"><g id="Layer_1-2" data-name="Layer 1"><rect class="cls-2" x="104.23" y="45.58" width="54.84" height="60.8"/><rect class="cls-3" x="117.63" y="45.58" width="28.02" height="60.8"/><rect class="cls-2" x="104.23" y="42.05" width="10.28" height="65.95"/><path class="cls-4" d="M137.93,81.41h-15s.38,11.51-1.46,14.85h18.13C137.73,92.92,137.93,81.41,137.93,81.41Z"/><path class="cls-5" d="M122.82,88.48c2.79,1.32,5.62,2.59,8.82,2.28a18.31,18.31,0,0,0,6.5-1.94c-.28-3.77-.22-7.41-.22-7.41h-15S123,84.83,122.82,88.48Z"/><path class="cls-4" d="M158.36,102.78l-20.92-8.17H123.56l-20.93,8.17s-7.33,2.63-6.47,15.38h68.68C165.84,104.63,158.36,102.78,158.36,102.78Z"/><path class="cls-4" d="M149.39,59.54c-.62,3.82.45,7.21,2.39,7.58s4-2.43,4.62-6.25-.46-7.22-2.4-7.59S150,55.72,149.39,59.54Z"/><path class="cls-6" d="M151.72,58.51a4.78,4.78,0,0,1,.1-.57,6.76,6.76,0,0,1,.47-1.37c.24-.51.63-1.1,1.12-1.13a1,1,0,0,1,.38.05l.19.1.13.11a2,2,0,0,1,.47.84,4.71,4.71,0,0,1,.23,1.08,5.81,5.81,0,0,1,0,1.1c-.06.38-.08.77-.15,1.11s-.12.66-.18,1-.14.58-.19.83-.13.45-.18.63c-.1.34-.15.55-.15.55s.1-.17.26-.5a5.33,5.33,0,0,0,.28-.58c.1-.23.21-.5.32-.79s.2-.64.31-1a9.06,9.06,0,0,0,.23-1.11,4.8,4.8,0,0,0,0-1.31,5.77,5.77,0,0,0-.25-1.29,2.73,2.73,0,0,0-.67-1.12,1.55,1.55,0,0,0-.28-.2,1.38,1.38,0,0,0-.27-.11,1.41,1.41,0,0,0-.58,0,1.52,1.52,0,0,0-1,.67,3.51,3.51,0,0,0-.46,1,5.91,5.91,0,0,0-.26,1.54A3.82,3.82,0,0,0,151.72,58.51Z"/><path class="cls-6" d="M151.72,58.51s-.18-.41,1.09-.51c0,0,1.43.26.59,2.17a6.22,6.22,0,0,0-.43,1.28c-.12.63.1,1.5-.24,2.07-.44.73-1.56.31-1.63-.52a4.89,4.89,0,0,1,.91-2.2A1.71,1.71,0,0,0,151.72,58.51Z"/><path class="cls-6" d="M151.1,62.91s0,0-.1.11a1,1,0,0,0-.18.35,1.07,1.07,0,0,0-.07.27.85.85,0,0,0,0,.32,2,2,0,0,0,.27.95c.06.08.13.15.19.22a.82.82,0,0,0,.39.28,1.06,1.06,0,0,0,.44.1,2.58,2.58,0,0,0-.2-.46,1.74,1.74,0,0,0-.11-.18,1.89,1.89,0,0,0-.09-.21,1.24,1.24,0,0,0-.1-.2.78.78,0,0,1-.09-.21,3,3,0,0,1-.15-.42,1.66,1.66,0,0,1-.06-.21,1.55,1.55,0,0,1,0-.21C151.13,63.15,151.1,62.91,151.1,62.91Z"/><path class="cls-4" d="M112.51,59.54c.61,3.82-.46,7.21-2.4,7.58s-4-2.43-4.62-6.25.46-7.22,2.4-7.59S111.89,55.72,112.51,59.54Z"/><path class="cls-6" d="M110.18,58.51s0-.22-.11-.57a6.76,6.76,0,0,0-.47-1.37c-.24-.51-.63-1.1-1.12-1.13a1,1,0,0,0-.37.05l-.19.1s-.09.06-.14.11a2.05,2.05,0,0,0-.47.84,5.31,5.31,0,0,0-.23,1.08,5.81,5.81,0,0,0,0,1.1c.06.38.08.77.15,1.11s.13.66.18,1,.14.58.2.83.12.45.17.63c.1.34.15.55.15.55s-.1-.17-.26-.5a5.33,5.33,0,0,1-.28-.58c-.1-.23-.21-.5-.32-.79s-.2-.64-.31-1-.15-.72-.23-1.11a5.23,5.23,0,0,1,0-1.31,5.77,5.77,0,0,1,.25-1.29,2.75,2.75,0,0,1,.68-1.12,1.46,1.46,0,0,1,.27-.2,1.69,1.69,0,0,1,.27-.11,1.41,1.41,0,0,1,.58,0,1.49,1.49,0,0,1,1,.67,3.24,3.24,0,0,1,.46,1,5.91,5.91,0,0,1,.26,1.54A5.29,5.29,0,0,1,110.18,58.51Z"/><path class="cls-6" d="M110.18,58.51s.18-.41-1.1-.51c0,0-1.42.26-.59,2.17a6.22,6.22,0,0,1,.43,1.28c.13.63-.1,1.5.24,2.07.44.73,1.57.31,1.63-.52a4.89,4.89,0,0,0-.91-2.2A1.7,1.7,0,0,1,110.18,58.51Z"/><path class="cls-6" d="M110.79,62.91a.6.6,0,0,1,.1.11,1.21,1.21,0,0,1,.19.35,1.07,1.07,0,0,1,.06.27,1.12,1.12,0,0,1,0,.32c0,.11,0,.23,0,.34s-.07.21-.11.32a2,2,0,0,1-.14.29c-.06.08-.13.15-.19.22a.82.82,0,0,1-.39.28,1.06,1.06,0,0,1-.44.1,3.89,3.89,0,0,1,.2-.46l.11-.18a1.89,1.89,0,0,1,.09-.21,1.28,1.28,0,0,1,.11-.2,1.31,1.31,0,0,0,.08-.21,2.1,2.1,0,0,0,.15-.42,1.66,1.66,0,0,0,.06-.21c0-.07,0-.14,0-.21C110.77,63.15,110.79,62.91,110.79,62.91Z"/><path class="cls-4" d="M150,28.51s-6.59-7.23-19.56-7.62c-13,.68-19.54,8.15-19.54,8.15-3.52,11.36-1.27,24.69.23,36.21,1.11,8.52,6.84,14.48,14,18.62a13.35,13.35,0,0,0,6,1.84,13.39,13.39,0,0,0,5.91-2c7-4.76,12.38-10.63,13.72-19.29a129.35,129.35,0,0,0,1.16-23.27A46.15,46.15,0,0,0,150,28.51Z"/><path class="cls-2" d="M124.79,51.76a14,14,0,0,0-9.43.64c.94-5.12,9.8-3,9.8-3s.59.14.52,1.06C125.68,50.44,125.45,52,124.79,51.76Z"/><path class="cls-2" d="M135.59,51.76a16,16,0,0,1,10.07.64c-.95-5.12-10.44-3-10.44-3s-.59.14-.52,1.06C134.7,50.44,134.93,52,135.59,51.76Z"/><path class="cls-7" d="M118.9,56.52c0,1.48.84,2.68,1.86,2.68s1.84-1.22,1.83-2.7-.84-2.68-1.86-2.68S118.89,55,118.9,56.52Z"/><path class="cls-8" d="M120,55.67a.79.79,0,0,1-.79.79.79.79,0,0,1-.8-.79.8.8,0,0,1,.8-.8A.79.79,0,0,1,120,55.67Z"/><path class="cls-7" d="M142.11,56.52c0,1.48-.84,2.68-1.86,2.68s-1.83-1.22-1.82-2.7.84-2.68,1.85-2.68S142.12,55,142.11,56.52Z"/><path class="cls-8" d="M141,55.67a.8.8,0,0,0,1.6,0,.8.8,0,0,0-1.6,0Z"/><path class="cls-8" d="M125.89,73.25c0,1.44,2,2.6,4.55,2.6s4.54-1.16,4.55-2.6Z"/><path class="cls-9" d="M134.75,73.65a4.62,4.62,0,0,0,1.48-.54,17.69,17.69,0,0,0-1.78-.63c-2.68-1.13-2.5.33-3.93.33-.71,0-1.43-.76-2.1-.66a12.38,12.38,0,0,0-1.82.33,8.9,8.9,0,0,0-1.79.63,5.62,5.62,0,0,0,1.62.62,19,19,0,0,1,2.91.15,4.69,4.69,0,0,0,2,.05,13.83,13.83,0,0,1,3.38-.28"/><path class="cls-9" d="M135.33,73.1a6.94,6.94,0,0,1-5.21,2.07,6.71,6.71,0,0,1-4.42-2.07h-.92c0,.08.06.15.09.22a10,10,0,0,0,.78,1.34c.16.23.34.46.51.69a6.65,6.65,0,0,0,.65.65l.35.32.41.28a3.37,3.37,0,0,0,.9.49,7,7,0,0,0,1,.34l.45.06.22,0h.32l1.06-.13a8.36,8.36,0,0,0,1-.33,3.64,3.64,0,0,0,.88-.5l.41-.27.34-.32a6.65,6.65,0,0,0,.65-.65l.52-.69a9.9,9.9,0,0,0,.77-1.34,1.45,1.45,0,0,0,.09-.22Z"/><path class="cls-8" d="M130.44,76.53c3.73-.25,4.42-2.41,4.42-2.41a5.36,5.36,0,0,1-4.42,1.8s-.24,0-.24.33C130.2,76.25,130.25,76.55,130.44,76.53Z"/><path class="cls-2" d="M159.06,48.36s1.14-29.13-21.54-33.26c0,0-16.08-2.57-22.11,7.4l6,15.28s-.11,5.45,25.1,10.83c0,0,5.16,1.32,5.48,11A18,18,0,0,1,159.06,48.36Z"/><path class="cls-10" d="M127.89,66.65l.1,0,.26-.07.82-.15c.32,0,.65-.09,1-.11s.66,0,1,0l.93.07.47,0,.46.06.45.08a2.07,2.07,0,0,1,.37,0,1.31,1.31,0,0,1,.27,0l.1,0a.66.66,0,0,0,0,.09A1.68,1.68,0,0,1,134,67a2.45,2.45,0,0,1-.5.8,2.59,2.59,0,0,1-.46.4,2.49,2.49,0,0,1-.6.33,2.83,2.83,0,0,1-.7.21,3.17,3.17,0,0,1-.75.06,3,3,0,0,1-.73-.09,3.52,3.52,0,0,1-.67-.23,3.27,3.27,0,0,1-1-.72A2.64,2.64,0,0,1,128,67a1.11,1.11,0,0,1-.1-.26Z"/><path class="cls-11" d="M152.5,118.16c-.06-6,.33-12.06,5.18-15.65l-18.11-7.06-9.37,8.63-8.38-8.79-18.72,7.3c3.55,2,4.58,7.15,4.86,10.88a42.06,42.06,0,0,1,.11,4.69Z"/><path class="cls-2" d="M124.78,36.84s-14,3-14,22.78c0,0-.59-6.37-4.34-5.51,0,0-10.49-26.32,14.07-33.74Z"/><polygon class="cls-4" points="118.9 32.59 120.14 39.72 121.88 38.8 118.9 32.59"/><rect class="cls-12" x="32.27" y="85.05" width="22.43" height="8.26"/><path class="cls-4" d="M52.49,75.36H34.27s.46,11.51-1.77,14.85h22C52.26,86.87,52.49,75.36,52.49,75.36Z"/><path class="cls-5" d="M34,84.05a19.38,19.38,0,0,0,9.6,2.55,22.78,22.78,0,0,0,9.3-2.08,74.86,74.86,0,0,1-.45-9.16H34.27A73.26,73.26,0,0,1,34,84.05Z"/><path class="cls-4" d="M78.7,98.18,52.25,88.71H34.71L8.27,98.18S-1,101.23.09,116H86.88C88.14,100.32,78.7,98.18,78.7,98.18Z"/><path class="cls-13" d="M78.7,98.18,57.09,90.44,43.5,99.91l-13.28-9.6L8.27,98.18S-1,101.23.09,116H86.88C88.14,100.32,78.7,98.18,78.7,98.18Z"/><path class="cls-14" d="M30.22,90.31,8.27,98.18S-1,101.23.09,116h35Z"/><path class="cls-14" d="M78.7,98.18,57.09,90.44,52.62,116H86.88C88.14,100.32,78.7,98.18,78.7,98.18Z"/><path class="cls-4" d="M63.45,52.75c-.63,3.88.46,7.34,2.43,7.71S70,58,70.58,54.1s-.46-7.33-2.43-7.71S64.08,48.87,63.45,52.75Z"/><path class="cls-6" d="M65.82,51.7s0-.22.11-.57a6.93,6.93,0,0,1,.47-1.4c.25-.52.65-1.11,1.15-1.15a1.31,1.31,0,0,1,.38.06l.19.1s.09,0,.14.11a2,2,0,0,1,.47.85A4.88,4.88,0,0,1,69,50.8a5.29,5.29,0,0,1,0,1.12c-.06.39-.08.79-.15,1.12s-.13.68-.19,1-.14.58-.2.83-.13.47-.17.64c-.1.36-.15.57-.15.57s.1-.18.26-.5.19-.36.29-.6.21-.51.32-.8.2-.65.31-1,.16-.73.24-1.13a5.72,5.72,0,0,0-.21-2.64,2.76,2.76,0,0,0-.68-1.14,1.42,1.42,0,0,0-.28-.2,1.69,1.69,0,0,0-.27-.11,1.52,1.52,0,0,0-.6,0,1.59,1.59,0,0,0-1,.68,3.5,3.5,0,0,0-.47,1,6.16,6.16,0,0,0-.26,1.56A3.38,3.38,0,0,0,65.82,51.7Z"/><path class="cls-6" d="M65.82,51.7s-.18-.41,1.12-.51c0,0,1.44.27.59,2.2a6.61,6.61,0,0,0-.43,1.3c-.13.65.1,1.53-.25,2.11a.92.92,0,0,1-1.65-.53A4.76,4.76,0,0,1,66.12,54,1.74,1.74,0,0,0,65.82,51.7Z"/><path class="cls-6" d="M65.2,56.18a.92.92,0,0,0-.11.11,1.29,1.29,0,0,0-.19.36,1.06,1.06,0,0,0-.06.28,1.12,1.12,0,0,0,0,.32c0,.11,0,.23,0,.34a3.19,3.19,0,0,0,.11.33,1.13,1.13,0,0,0,.15.29,2.11,2.11,0,0,0,.19.23.82.82,0,0,0,.39.28,1.28,1.28,0,0,0,.45.11,3,3,0,0,0-.21-.47,1.14,1.14,0,0,0-.1-.19,2,2,0,0,0-.1-.21,1.24,1.24,0,0,0-.1-.2,1,1,0,0,1-.09-.22,2.35,2.35,0,0,1-.15-.42c0-.08,0-.15-.06-.22s0-.14,0-.21A3.27,3.27,0,0,1,65.2,56.18Z"/><path class="cls-4" d="M23.83,52.75c.63,3.88-.46,7.34-2.43,7.71S17.33,58,16.71,54.1s.46-7.33,2.43-7.71S23.21,48.87,23.83,52.75Z"/><path class="cls-6" d="M21.47,51.7s0-.22-.11-.57a7.62,7.62,0,0,0-.47-1.4c-.25-.52-.65-1.11-1.15-1.15a1.31,1.31,0,0,0-.38.06l-.19.1s-.09,0-.14.11a2,2,0,0,0-.47.85,4.89,4.89,0,0,0-.24,1.1,6,6,0,0,0,0,1.12c.06.39.08.79.15,1.12s.13.68.19,1,.14.58.19.83.13.47.18.64c.1.36.15.57.15.57s-.1-.18-.26-.5-.19-.36-.29-.6-.21-.51-.32-.8-.21-.65-.31-1-.16-.73-.24-1.13a4.93,4.93,0,0,1-.05-1.33A5.94,5.94,0,0,1,18,49.37a2.68,2.68,0,0,1,.69-1.14,1.18,1.18,0,0,1,.28-.2,1.69,1.69,0,0,1,.27-.11,1.46,1.46,0,0,1,.59,0,1.59,1.59,0,0,1,1,.68,3.8,3.8,0,0,1,.47,1,6.16,6.16,0,0,1,.26,1.56A3.38,3.38,0,0,1,21.47,51.7Z"/><path class="cls-6" d="M21.47,51.7s.18-.41-1.12-.51c0,0-1.45.27-.6,2.2a6,6,0,0,1,.44,1.3c.13.65-.1,1.53.24,2.11.45.74,1.59.32,1.66-.53A4.86,4.86,0,0,0,21.17,54,1.74,1.74,0,0,1,21.47,51.7Z"/><path class="cls-6" d="M22.09,56.18a.6.6,0,0,1,.1.11,1.29,1.29,0,0,1,.19.36,1,1,0,0,1,.07.28.85.85,0,0,1,0,.32c0,.11,0,.23,0,.34a3.18,3.18,0,0,1-.1.33,1.57,1.57,0,0,1-.15.29c-.06.09-.13.15-.19.23a.84.84,0,0,1-.4.28,1.21,1.21,0,0,1-.44.11,2.51,2.51,0,0,1,.2-.47,1.18,1.18,0,0,1,.11-.19l.09-.21c0-.07.07-.14.11-.2a1,1,0,0,0,.08-.22,2.41,2.41,0,0,0,.16-.42c0-.08,0-.15.06-.22a1.55,1.55,0,0,0,0-.21A4.28,4.28,0,0,0,22.09,56.18Z"/><path class="cls-4" d="M43.88,10.85h-.62C27.6,11,18.81,15.44,21.21,44l2.7,22.74a9.45,9.45,0,0,0,5,6.62l8.51,6.31s4,1.79,6.14,1.62c2.09.17,6.13-1.62,6.13-1.62l8.5-6.31a9.46,9.46,0,0,0,5-6.63l2.84-22.2C68.48,16,59.54,11,43.88,10.85Z"/><path class="cls-15" d="M62.29,52.75c-.56,2.42-.94,6.29-2.51,8.37a6,6,0,0,1-4.57,2.34,16.26,16.26,0,0,1-3.75-.26,20,20,0,0,0-2.85-.67,5.26,5.26,0,0,0-2.81.87,4.13,4.13,0,0,1-3.52.18,16.06,16.06,0,0,0-5.46-1.19c-2.16.08-4.63.65-6.75,0s-3.44-2.66-4.32-4.73c-.48-1.12-.82-3.75-1.16-4.91-.42-1.44-1.08-.45-2.39-.47l1.71,14.44a9.45,9.45,0,0,0,5,6.62l8.51,6.31s4,1.79,6.14,1.62c2.09.17,6.13-1.62,6.13-1.62l8.5-6.31a9.46,9.46,0,0,0,5-6.63L65.12,52C63.64,52,62.68,51.06,62.29,52.75Z"/><path class="cls-7" d="M32,45.85c0,1.48.84,2.68,1.86,2.67s1.83-1.21,1.82-2.69-.84-2.69-1.85-2.68S32,44.37,32,45.85Z"/><path class="cls-8" d="M33.15,45a.8.8,0,0,1-.8.8.8.8,0,0,1,0-1.6A.8.8,0,0,1,33.15,45Z"/><path class="cls-7" d="M55.25,45.85c0,1.48-.84,2.68-1.86,2.67s-1.84-1.21-1.83-2.69.84-2.69,1.86-2.68S55.26,44.37,55.25,45.85Z"/><path class="cls-8" d="M54.14,45a.8.8,0,1,0,1.59,0,.8.8,0,1,0-1.59,0Z"/><path class="cls-16" d="M46.35,60.29a5.37,5.37,0,0,1-1.48,1,6,6,0,0,1-1.77.48,7.47,7.47,0,0,1-1,0,6.22,6.22,0,0,1-.95-.14,5.32,5.32,0,0,1-.94-.28,7.16,7.16,0,0,1-.88-.43L39,60.76l-.08-.62c0-.28-.06-.52-.07-.77s0-.5,0-.75a8.11,8.11,0,0,1,.2-1.48,6.48,6.48,0,0,1,.5-1.44,5,5,0,0,1,.87-1.34,7.24,7.24,0,0,1,.42,1.52A10.13,10.13,0,0,1,41,57.31c0,.47,0,.94,0,1.4l0,.69c0,.23,0,.47-.07.68l-.45-.81c.2.12.38.29.59.4a4.78,4.78,0,0,0,.64.32,6.85,6.85,0,0,0,.68.26c.24,0,.48.13.73.16a4.9,4.9,0,0,0,.77.08,7.09,7.09,0,0,0,.8,0A9.79,9.79,0,0,0,46.35,60.29Z"/><path class="cls-15" d="M37.74,40.38a1.28,1.28,0,0,1-1.46,1,14.1,14.1,0,0,0-7.45.63,1.34,1.34,0,0,1-1.59-.73h0a1.19,1.19,0,0,1,.65-1.67,16.68,16.68,0,0,1,8.77-.77,1.3,1.3,0,0,1,1.08,1.56Z"/><path class="cls-15" d="M48.84,40.38a1.28,1.28,0,0,0,1.46,1,14.1,14.1,0,0,1,7.45.63,1.34,1.34,0,0,0,1.59-.73h0a1.19,1.19,0,0,0-.65-1.67,16.68,16.68,0,0,0-8.77-.77,1.3,1.3,0,0,0-1.08,1.56Z"/><path class="cls-17" d="M44.42,70.31a4.92,4.92,0,0,1-2.21,0"/><path class="cls-8" d="M38.35,65.75l1.28,2.52s5.72,3.21,9.75-2.39A99.85,99.85,0,0,1,38.35,65.75Z"/><path class="cls-15" d="M66.42,12c1.84-8-7.88-9.2-7.88-9.2A75.54,75.54,0,0,1,41,.5C21.19-2.29,18.92,7.56,18.92,7.56c-2.42,7.05-2.14,11.38-2.14,11.38l2.36,27.45s2-.33,2.68,2.72l.49,3.61,2.28,0C24,41.43,24,32.18,24,32.18c.18-3.33,0-8.15,5.07-8.73a76,76,0,0,0,7.65,1,64.05,64.05,0,0,0,14.65-.37c3.14-.38,8.56-1.61,10.78,1.4,1.55,2.12,1.51,5.56,1.58,8.06,0,1.38-.09,2.71-.17,4.07,0,0-1.28,15.1-1.28,15.1H65c.44-6.91,4-5.92,4-5.92,2.06-15.52,4.24-25.63,4.24-25.63s.76-8.56-6.87-9.18"/><path class="cls-15" d="M67.21,8.26s2.24,2-.79,4.5l2.57,3s2.73-3.94,4.71-2.32c0,0-.64-2.3-3.57-1.62C70.13,11.86,71.31,8.52,67.21,8.26Z"/><polygon class="cls-18" points="30.22 90.31 35.07 116.01 29.8 116.01 18.51 94.51 30.22 90.31"/><polygon class="cls-18" points="57.09 90.44 52.62 116.01 57.54 116.01 67.33 94.11 57.09 90.44"/><polygon class="cls-12" points="43.49 99.87 41.71 90.76 32.27 85.05 30.9 90.8 43.49 99.87"/><polygon class="cls-12" points="43.49 99.87 45.27 90.76 54.71 85.05 56.08 90.8 43.49 99.87"/><path class="cls-19" d="M48,92H39a2.75,2.75,0,0,0-1.15,3.34l2.87,4.54h5.58l2.86-4.54A2.75,2.75,0,0,0,48,92Z"/><path class="cls-20" d="M48.62,92.52a5,5,0,0,1-.19,2.68,5.21,5.21,0,0,1-4,3.69,3.47,3.47,0,0,1-4.12-2.29c-.47-1.6-.74-3.41.29-4.61H39a2.75,2.75,0,0,0-1.15,3.34l2.87,4.54h5.58l2.86-4.54A2.54,2.54,0,0,0,48.62,92.52Z"/><polygon class="cls-19" points="40.7 99.87 37.62 116.01 49.38 116.01 46.28 99.87 40.7 99.87"/><polygon class="cls-21" points="41.71 90.76 37.25 98.93 26.34 91.52 32.27 85.05 41.71 90.76"/><polygon class="cls-21" points="45.27 90.76 49.73 98.93 60.64 91.52 54.71 85.05 45.27 90.76"/><path class="cls-22" d="M100.38,106.4l7.14-6.05a4.81,4.81,0,0,0,0-7.56l-6.14-5.2a7.14,7.14,0,0,0-8.91,0l-7.13,6-7.13-6a7.14,7.14,0,0,0-8.91,0l-6.13,5.2a4.81,4.81,0,0,0,0,7.56l7.13,6.05-7.13,6a4.81,4.81,0,0,0,0,7.56l6.13,5.2a7.14,7.14,0,0,0,8.91,0l7.13-6,7.13,6a7.14,7.14,0,0,0,8.91,0l6.14-5.2a4.81,4.81,0,0,0,0-7.56Z"/></g></g></g></svg>