<svg xmlns="http://www.w3.org/2000/svg" viewBox="0 0 316.11 283.68"><defs><style>.cls-1,.cls-2{fill:#010101;}.cls-2{fill-rule:evenodd;}.cls-3{fill:none;stroke:#231f20;stroke-miterlimit:10;stroke-width:8px;}</style></defs><g id="Layer_2" data-name="Layer 2"><g id="Layer_1-2" data-name="Layer 1"><path class="cls-1" d="M57.33,243.54s-13.38,0-13.38-16,13.38-64.21,80.29-64.21,80.29,48.16,80.29,64.21-13.38,16-13.38,16Zm66.91-96.32c22.17,0,40.14-21.56,40.14-48.15s-18-48.16-40.14-48.16S84.09,72.47,84.09,99.07,102.06,147.22,124.24,147.22Z"/><path class="cls-2" d="M224.6,99.07c3.69,0,6.69,3.59,6.69,8v24.08h20.07c3.7,0,6.69,3.6,6.69,8s-3,8-6.69,8H231.29V171.3c0,4.44-3,8-6.69,8s-6.69-3.59-6.69-8V147.22H197.84c-3.7,0-6.69-3.59-6.69-8s3-8,6.69-8h20.07V107.09C217.91,102.66,220.9,99.07,224.6,99.07Z"/><rect class="cls-3" x="4" y="4" width="308.11" height="275.68"/></g></g></svg>